<svg width="159" height="58" viewBox="0 0 159 58" fill="none" xmlns="http://www.w3.org/2000/svg">
<g clip-path="url(#clip0)">
<path d="M42.2826 22.503C42.785 22.2124 43.3711 22.0878 43.999 22.0878C45.0875 22.0878 46.0085 22.5445 46.7621 23.4579L48.8972 21.5481C48.3111 20.8423 47.5994 20.3026 46.7202 19.9289C45.8411 19.5552 44.8782 19.3477 43.7897 19.3477C42.5338 19.3477 41.4453 19.5968 40.4406 20.1365C39.4777 20.6347 38.6823 21.382 38.1381 22.2954C37.5938 23.2088 37.3008 24.2882 37.3008 25.4507C37.3008 26.6132 37.5938 27.6512 38.1381 28.6061C38.6823 29.5195 39.4777 30.2668 40.4406 30.765C41.4035 31.2632 42.5338 31.5538 43.7897 31.5538C44.8782 31.5538 45.8411 31.3462 46.7202 30.9726C47.5994 30.5989 48.3111 30.0592 48.8972 29.3534L46.7621 27.4436C46.0085 28.357 45.0875 28.8137 43.999 28.8137C43.3711 28.8137 42.785 28.6891 42.2826 28.3985C41.7802 28.1079 41.4035 27.7342 41.1104 27.236C40.8174 26.7378 40.6918 26.1565 40.6918 25.4923C40.6918 24.828 40.8174 24.2467 41.1104 23.7485C41.4035 23.1673 41.7802 22.7521 42.2826 22.503ZM53.7115 26.5717H58.9445V24.0807H53.7115V22.0878H59.6562V19.5137H50.4043V31.2217H59.8656V28.6476H53.7115V26.5717ZM69.9548 20.095C69.1594 19.7628 68.2384 19.5552 67.1918 19.5552H61.7913V31.2632H65.1404V28.1909H67.1918C68.2802 28.1909 69.2013 28.0248 69.9548 27.6512C70.7502 27.319 71.3363 26.8208 71.755 26.1565C72.1736 25.4923 72.3829 24.7449 72.3829 23.8731C72.3829 23.0012 72.1736 22.2124 71.755 21.5896C71.3782 20.9253 70.7502 20.4271 69.9548 20.095ZM68.5314 25.1601C68.1965 25.4507 67.6523 25.6168 66.9825 25.6168H65.1404V22.1708H66.9825C67.6523 22.1708 68.1965 22.3369 68.5314 22.6275C68.8663 22.9182 69.0338 23.3333 69.0338 23.9146C69.0338 24.4958 68.9082 24.8695 68.5314 25.1601ZM77.2392 26.5717H82.4722V24.0807H77.2392V22.0878H83.1839V19.5137H73.9319V31.2217H83.3932V28.6476H77.2392V26.5717ZM94.9477 24.911C94.1942 24.3298 93.1057 23.9976 91.6404 23.9976H88.5844V22.0878H95.157V19.5137H85.2771V31.2217H91.1799C92.7289 31.2217 93.9011 30.8895 94.7802 30.2253C95.6175 29.561 96.078 28.6476 96.078 27.4436C96.078 26.3641 95.7013 25.4923 94.9477 24.911ZM92.2684 28.5646C91.9753 28.7721 91.5567 28.8967 90.9706 28.8967H88.5844V26.3641H90.9706C92.101 26.3641 92.687 26.7793 92.687 27.6096C92.7289 28.0248 92.5614 28.3154 92.2684 28.5646ZM106 20.095C105.204 19.7628 104.283 19.5552 103.237 19.5552H97.8363V31.2632H101.185V28.1909H103.237C104.283 28.1909 105.246 28.0248 106 27.6512C106.795 27.319 107.381 26.8208 107.8 26.1565C108.219 25.4923 108.428 24.7449 108.428 23.8731C108.428 23.0012 108.219 22.2124 107.8 21.5896C107.381 20.9253 106.753 20.4271 106 20.095ZM104.535 25.1601C104.2 25.4507 103.655 25.6168 102.986 25.6168H101.144V22.1708H102.986C103.655 22.1708 104.2 22.3369 104.535 22.6275C104.87 22.9182 105.037 23.3333 105.037 23.9146C105.037 24.4958 104.911 24.8695 104.535 25.1601ZM111.484 20.095C110.689 20.4686 110.061 20.9668 109.642 21.6311C109.223 22.2954 109.014 23.0842 109.014 23.9976C109.014 24.911 109.223 25.6583 109.642 26.3226C110.061 26.9869 110.647 27.4851 111.442 27.8172L109.056 31.2632H112.573L114.498 28.3154H116.298V31.2632H119.606V19.5552H114.289C113.2 19.5552 112.279 19.7213 111.484 20.095ZM116.298 22.1708V25.7829H114.289C113.661 25.7829 113.159 25.6168 112.866 25.3262C112.531 25.0356 112.363 24.5789 112.363 23.9976C112.363 22.7936 113.033 22.2124 114.331 22.2124H116.298V22.1708ZM129.988 23.9561H125.425V19.5552H122.076V31.2632H125.425V26.6963H129.988V31.2632H133.337V19.5552H129.988V23.9561ZM139.91 19.5552L134.719 31.2632H138.11L139.031 28.9797H144.012L144.934 31.2632H148.408L143.175 19.5552H139.91ZM139.994 26.5302L141.501 22.7936L143.008 26.5302H139.994ZM153.683 19.5552C152.595 19.5552 151.674 19.7213 150.878 20.095C150.083 20.4686 149.455 20.9668 149.036 21.6311C148.618 22.2954 148.408 23.0842 148.408 23.9976C148.408 24.911 148.618 25.6583 149.036 26.3226C149.455 26.9869 150.041 27.4851 150.836 27.8172L148.45 31.2632H151.967L153.892 28.3154H155.693V31.2632H159V19.5552H153.683ZM155.693 25.7829H153.683C153.055 25.7829 152.553 25.6168 152.26 25.3262C151.925 25.0356 151.757 24.5789 151.757 23.9976C151.757 22.7936 152.427 22.2124 153.725 22.2124H155.693V25.7829Z" fill="#1338BD"/>
<path d="M44.4192 41.9741C44.796 41.7665 45.1309 41.5174 45.3402 41.1853C45.5496 40.8532 45.6751 40.4795 45.6751 40.0228C45.6751 39.2755 45.3821 38.6942 44.796 38.2791C44.2099 37.8639 43.3726 37.6563 42.2841 37.6563H37.8047V46.6241H42.4516C43.5819 46.6241 44.5029 46.375 45.1309 45.9183C45.7589 45.4616 46.0519 44.8388 46.0519 44.05C46.0519 43.5103 45.9263 43.0951 45.6333 42.7214C45.3402 42.4308 44.9216 42.1402 44.4192 41.9741ZM40.3165 39.5246H41.9492C42.6609 39.5246 43.0377 39.8152 43.0377 40.3965C43.0377 40.9777 42.6609 41.2683 41.9492 41.2683H40.3165V39.5246ZM42.326 44.8388H40.3165V42.9705H42.326C43.0796 42.9705 43.4563 43.2612 43.4563 43.8839C43.4563 44.5482 43.0796 44.8388 42.326 44.8388ZM54.4666 38.113C53.7131 37.6978 52.8339 37.4902 51.871 37.4902C50.9082 37.4902 50.0709 37.6978 49.2755 38.113C48.5219 38.5282 47.8939 39.0679 47.4753 39.7737C47.0567 40.4795 46.8055 41.2683 46.8055 42.1817C46.8055 43.0536 47.0148 43.8839 47.4753 44.5897C47.8939 45.2955 48.5219 45.8353 49.2755 46.2504C50.029 46.6656 50.9082 46.8732 51.871 46.8732C52.8339 46.8732 53.6712 46.6656 54.4666 46.2504C55.262 45.8353 55.8481 45.2955 56.2668 44.5897C56.6854 43.8839 56.9366 43.0951 56.9366 42.1817C56.9366 41.3098 56.7273 40.4795 56.2668 39.7737C55.8063 39.0679 55.2202 38.5282 54.4666 38.113ZM54.0061 43.5103C53.7968 43.8839 53.5037 44.2161 53.127 44.4237C52.7502 44.6312 52.3315 44.7558 51.871 44.7558C51.4105 44.7558 50.9919 44.6312 50.6151 44.4237C50.2383 44.2161 49.9453 43.9255 49.736 43.5103C49.5266 43.1366 49.4011 42.6799 49.4011 42.1817C49.4011 41.6835 49.5266 41.2268 49.736 40.8532C49.9453 40.4795 50.2383 40.1474 50.6151 39.9398C50.9919 39.7322 51.4105 39.6076 51.871 39.6076C52.3315 39.6076 52.7502 39.7322 53.127 39.9398C53.5037 40.1474 53.7968 40.438 54.0061 40.8532C54.2154 41.2268 54.341 41.6835 54.341 42.1817C54.341 42.6799 54.2154 43.1366 54.0061 43.5103ZM66.5235 37.6978H59.2391L59.1554 40.4795C59.1135 41.8496 58.9879 42.846 58.7368 43.5933C58.5274 44.2991 58.1507 44.6728 57.6064 44.6728H57.2715V48.4924H59.6159V46.6656H65.3932V48.4924H67.7375V44.6728H66.5235V37.6978ZM64.0116 44.6728H60.5788C60.83 44.2991 60.9974 43.8009 61.123 43.1366C61.2486 42.4723 61.3323 41.642 61.3742 40.6871L61.4161 39.7322H64.0116V44.6728ZM74.687 37.6978H72.1751L68.1562 46.6656H70.7518L71.4635 44.9219H75.2731L75.9848 46.6656H78.6641L74.687 37.6978ZM72.2589 43.0536L73.4311 40.1889L74.6033 43.0536H72.2589Z" fill="#1338BD"/>
<path d="M81.4258 46.6657H82.6817V37.6979H81.4258V46.6657ZM98.4226 40.7702H98.7575V37.6979H100.097V37.4073H97.1248V37.6979H98.4645V40.7702H98.4226ZM91.4732 40.7702C91.8081 40.7702 92.1011 40.6871 92.3523 40.5626C92.6035 40.3965 92.8128 40.2304 92.9803 39.9398C93.1477 39.6907 93.1896 39.4001 93.1896 39.068C93.1896 38.7358 93.1059 38.4452 92.9803 38.1961C92.8128 37.947 92.6454 37.7394 92.3523 37.5733C92.1011 37.4073 91.8081 37.3657 91.4732 37.3657C91.1383 37.3657 90.8452 37.4488 90.594 37.5733C90.3428 37.7394 90.1335 37.9055 89.9661 38.1961C89.7986 38.4452 89.7567 38.7358 89.7567 39.068C89.7567 39.4001 89.8405 39.6907 89.9661 39.9398C90.1335 40.1889 90.301 40.3965 90.594 40.5626C90.8871 40.7287 91.1801 40.7702 91.4732 40.7702ZM90.301 39.8153C90.1754 39.6077 90.1335 39.3586 90.1335 39.068C90.1335 38.7773 90.1754 38.5282 90.301 38.3206C90.4266 38.1131 90.594 37.947 90.8033 37.8224C91.0127 37.6979 91.222 37.6564 91.515 37.6564C91.7662 37.6564 92.0174 37.6979 92.2267 37.8224C92.4361 37.947 92.6035 38.1131 92.7291 38.3206C92.8547 38.5282 92.8966 38.7773 92.8966 39.068C92.8966 39.3586 92.8547 39.6077 92.7291 39.8153C92.6035 40.0229 92.4361 40.1889 92.2267 40.3135C92.0174 40.438 91.8081 40.4796 91.515 40.4796C91.2639 40.4796 91.0127 40.438 90.8033 40.3135C90.594 40.1889 90.4266 40.0229 90.301 39.8153ZM114.164 41.9742H113.912C113.912 42.2233 113.996 42.4309 114.164 42.5554C114.331 42.68 114.54 42.763 114.833 42.763C115.126 42.763 115.336 42.68 115.503 42.5554C115.671 42.4309 115.754 42.2233 115.754 41.9742H115.503C115.503 42.1403 115.419 42.3063 115.294 42.3894C115.168 42.4724 115.001 42.5554 114.833 42.5554C114.666 42.5554 114.457 42.5139 114.331 42.3894C114.247 42.2648 114.164 42.1403 114.164 41.9742ZM88.6264 37.4073H86.2402L86.1983 38.5282C86.1564 39.151 86.1146 39.6077 86.0308 39.9813C85.9471 40.3135 85.7797 40.5211 85.5703 40.5211H85.361V41.642H85.6541V40.8117H88.8776V41.642H89.1706V40.5211H88.6264V37.4073ZM88.2915 40.4796H85.989C86.1564 40.355 86.282 40.1474 86.3239 39.8153C86.4076 39.4831 86.4495 39.068 86.4495 38.5282L86.4913 37.6979H88.2496V40.4796H88.2915ZM94.7386 40.5626C94.9898 40.7287 95.2828 40.7702 95.6177 40.7702C95.9108 40.7702 96.1201 40.7287 96.3713 40.6041C96.5806 40.4796 96.7899 40.355 96.9155 40.1474L96.6643 39.9813C96.5387 40.1474 96.4131 40.272 96.2038 40.355C96.0364 40.438 95.827 40.4796 95.6177 40.4796C95.3665 40.4796 95.1154 40.438 94.906 40.3135C94.6967 40.1889 94.5293 40.0229 94.4037 39.8153C94.2781 39.6077 94.2362 39.3586 94.2362 39.068C94.2362 38.7773 94.2781 38.5282 94.4037 38.3206C94.5293 38.1131 94.6967 37.947 94.906 37.8224C95.1154 37.6979 95.3665 37.6564 95.6177 37.6564C95.827 37.6564 96.0364 37.6979 96.2038 37.7809C96.3713 37.8639 96.5387 37.9885 96.6643 38.1546L96.9155 37.9885C96.7899 37.7809 96.5806 37.6148 96.3713 37.5318C96.162 37.4073 95.9108 37.3657 95.6177 37.3657C95.2828 37.3657 94.9898 37.4488 94.7386 37.5733C94.4874 37.6979 94.2781 37.9055 94.1106 38.1961C93.9432 38.4452 93.9013 38.7358 93.9013 39.068C93.9013 39.4001 93.985 39.6907 94.1106 39.9398C94.2781 40.2304 94.4874 40.438 94.7386 40.5626ZM99.0925 44.5067H98.0458V43.3027H97.7109V46.6657H99.0087C99.4692 46.6657 99.8041 46.5826 100.013 46.375C100.223 46.1675 100.348 45.9183 100.348 45.5447C100.348 45.2125 100.223 44.9219 100.013 44.7559C99.8041 44.5898 99.553 44.5067 99.0925 44.5067ZM99.8041 46.209C99.6367 46.3335 99.3855 46.4166 99.0087 46.4166H98.0458V44.7559H99.0087C99.3436 44.7559 99.6367 44.8389 99.8041 44.9634C99.9716 45.088 100.055 45.2956 100.055 45.5862C100.055 45.8353 99.9716 46.0429 99.8041 46.209ZM90.6778 46.1259V43.2612H90.3428V46.6241H90.6359L93.064 43.7594V46.6241H93.3989V43.2612H93.1059L90.6778 46.1259ZM85.989 46.6241H86.3239V43.5518H88.6264V46.6241H88.9613V43.2612H85.989V46.6241ZM94.0688 43.5518H95.4084V46.6241H95.7433V43.5518H97.083V43.2612H94.1106V43.5518H94.0688ZM110.94 40.7702H111.317L109.852 39.0264L111.233 37.4073H110.856L109.558 38.9434H108.721V37.4073H108.428V40.7702H108.763V39.1925H109.6L110.94 40.7702ZM125.592 43.4688C125.341 43.3027 125.048 43.2612 124.713 43.2612C124.378 43.2612 124.085 43.3443 123.834 43.4688C123.583 43.6349 123.374 43.801 123.206 44.0916C123.039 44.3407 122.997 44.6313 122.997 44.9634C122.997 45.2956 123.081 45.5862 123.206 45.8353C123.374 46.0844 123.541 46.292 123.834 46.4581C124.085 46.6241 124.378 46.6657 124.713 46.6657C125.048 46.6657 125.341 46.5826 125.592 46.4581C125.844 46.292 126.053 46.1259 126.22 45.8353C126.388 45.5862 126.43 45.2956 126.43 44.9634C126.43 44.6313 126.346 44.3407 126.22 44.0916C126.095 43.8425 125.844 43.5934 125.592 43.4688ZM125.886 45.7108C125.76 45.9183 125.592 46.0844 125.383 46.209C125.174 46.3335 124.964 46.375 124.671 46.375C124.42 46.375 124.169 46.3335 123.96 46.209C123.75 46.0844 123.583 45.9183 123.457 45.7108C123.332 45.5032 123.29 45.2541 123.29 44.9634C123.29 44.6728 123.332 44.4237 123.457 44.2161C123.583 44.0085 123.75 43.8425 123.96 43.7179C124.169 43.5934 124.378 43.5518 124.671 43.5518C124.923 43.5518 125.174 43.5934 125.383 43.7179C125.592 43.8425 125.76 44.0085 125.886 44.2161C126.011 44.4237 126.053 44.6728 126.053 44.9634C126.095 45.2125 126.011 45.4617 125.886 45.7108ZM121.448 44.9219C121.657 44.8804 121.783 44.7559 121.908 44.6313C122.034 44.5068 122.076 44.3407 122.076 44.1331C122.076 43.8425 121.95 43.6349 121.741 43.5103C121.532 43.3858 121.239 43.3027 120.862 43.3027H119.438V46.6657H120.904C121.322 46.6657 121.657 46.5826 121.867 46.4166C122.076 46.2505 122.201 46.0429 122.201 45.7523C122.201 45.2541 121.95 45.005 121.448 44.9219ZM119.773 43.5518H120.862C121.155 43.5518 121.364 43.5934 121.532 43.7179C121.699 43.8425 121.783 43.967 121.783 44.1746C121.783 44.3822 121.699 44.5483 121.532 44.6313C121.364 44.7559 121.155 44.7974 120.862 44.7974H119.773V43.5518ZM120.904 46.375H119.773V45.0465H120.987C121.322 45.0465 121.532 45.088 121.699 45.2125C121.867 45.3371 121.908 45.5032 121.908 45.7108C121.867 46.1675 121.573 46.375 120.904 46.375ZM113.661 46.1259V43.2612H113.326V46.6241H113.619L116.047 43.7594V46.6241H116.382V43.2612H116.089L113.661 46.1259ZM130.114 43.2612H127.728L127.686 44.3822C127.644 45.005 127.602 45.4617 127.518 45.8353C127.434 46.1675 127.267 46.375 127.058 46.375H126.848V47.496H127.141V46.6657H130.365V47.496H130.658V46.375H130.114V43.2612ZM129.779 46.375H127.476C127.644 46.2505 127.769 46.0429 127.811 45.7108C127.895 45.3786 127.937 44.9634 127.937 44.4237L127.979 43.5934H129.737V46.375H129.779ZM132.961 44.5067H131.956V43.3027H131.621V46.6657H132.877C133.337 46.6657 133.672 46.5826 133.882 46.375C134.091 46.1675 134.216 45.9183 134.216 45.5447C134.216 45.2125 134.091 44.9219 133.882 44.7559C133.714 44.5898 133.379 44.5067 132.961 44.5067ZM133.672 46.209C133.505 46.3335 133.212 46.4166 132.877 46.4166H131.956V44.7559H132.877C133.212 44.7559 133.505 44.8389 133.672 44.9634C133.84 45.088 133.923 45.2956 133.923 45.5862C133.923 45.8353 133.84 46.0429 133.672 46.209ZM134.886 43.2612V46.6241H135.221V43.2612H134.886ZM114.164 40.1474V40.7287H114.457V38.6113C114.457 38.1961 114.331 37.9055 114.122 37.6564C113.912 37.4488 113.577 37.3242 113.159 37.3242C112.908 37.3242 112.656 37.3657 112.405 37.4488C112.154 37.5318 111.945 37.6564 111.777 37.7809L111.945 38.03C112.07 37.9055 112.28 37.7809 112.489 37.7394C112.698 37.6564 112.908 37.6148 113.117 37.6148C113.452 37.6148 113.703 37.6979 113.87 37.8639C114.038 38.03 114.122 38.2791 114.122 38.5697V38.8604H112.949C112.489 38.8604 112.196 38.9434 111.987 39.1095C111.777 39.2755 111.694 39.5246 111.694 39.7738C111.694 40.0644 111.819 40.3135 112.028 40.4796C112.238 40.6456 112.531 40.7287 112.908 40.7287C113.201 40.7287 113.452 40.6871 113.661 40.5626C113.912 40.5211 114.08 40.355 114.164 40.1474ZM112.322 40.3135C112.154 40.1889 112.07 40.0229 112.07 39.7738C112.07 39.5662 112.154 39.4001 112.28 39.2755C112.405 39.151 112.656 39.1095 112.991 39.1095H114.164V39.7322C114.08 39.9813 113.912 40.1474 113.703 40.3135C113.494 40.438 113.284 40.5211 112.991 40.5211C112.698 40.5211 112.447 40.438 112.322 40.3135ZM106.963 40.5211C107.172 40.355 107.298 40.1474 107.298 39.8568C107.298 39.4001 107.047 39.1095 106.544 39.0264C106.754 38.9849 106.879 38.8604 107.005 38.7358C107.13 38.6113 107.172 38.4452 107.172 38.2376C107.172 37.947 107.047 37.7394 106.837 37.6148C106.628 37.4903 106.335 37.4073 105.958 37.4073H104.535V40.7702H106C106.419 40.7702 106.712 40.6871 106.963 40.5211ZM104.828 37.6564H105.916C106.209 37.6564 106.419 37.6979 106.586 37.8224C106.754 37.947 106.837 38.0715 106.837 38.2791C106.837 38.4867 106.754 38.6528 106.586 38.7358C106.419 38.8604 106.209 38.9019 105.916 38.9019H104.828V37.6564ZM104.828 40.4796V39.151H106.042C106.377 39.151 106.586 39.1925 106.754 39.3171C106.921 39.4416 106.963 39.6077 106.963 39.8153C106.963 40.2304 106.628 40.4796 106 40.4796H104.828ZM103.446 43.4688C103.195 43.3443 102.944 43.2612 102.609 43.2612C102.274 43.2612 102.023 43.3443 101.772 43.4688C101.521 43.6349 101.311 43.801 101.186 44.0916C101.06 44.3407 100.976 44.6313 100.976 44.9634C100.976 45.2956 101.06 45.5862 101.186 45.8353C101.353 46.0844 101.562 46.292 101.814 46.4581C102.065 46.6241 102.4 46.6657 102.735 46.6657C102.986 46.6657 103.237 46.6241 103.446 46.5411C103.656 46.4581 103.865 46.292 103.991 46.1259L103.781 45.9183C103.656 46.0844 103.488 46.209 103.321 46.2505C103.111 46.3335 102.944 46.375 102.693 46.375C102.442 46.375 102.19 46.3335 101.981 46.209C101.772 46.0844 101.604 45.9599 101.479 45.7523C101.353 45.5447 101.269 45.2956 101.269 45.0465H104.2V44.9634C104.2 44.6313 104.116 44.3407 103.991 44.0916C103.907 43.801 103.698 43.5934 103.446 43.4688ZM101.311 44.7974C101.311 44.5483 101.395 44.3407 101.521 44.1331C101.646 43.9255 101.772 43.801 101.981 43.6764C102.19 43.5518 102.4 43.5103 102.609 43.5103C102.818 43.5103 103.07 43.5518 103.237 43.6764C103.446 43.801 103.572 43.9255 103.698 44.1331C103.823 44.3407 103.865 44.5483 103.907 44.7974H101.311ZM107.34 44.9219C107.549 44.8804 107.675 44.7559 107.8 44.6313C107.926 44.5068 107.968 44.3407 107.968 44.1331C107.968 43.8425 107.842 43.6349 107.633 43.5103C107.423 43.3858 107.13 43.3027 106.754 43.3027H105.33V46.6657H106.795C107.214 46.6657 107.549 46.5826 107.758 46.4166C107.968 46.2505 108.093 46.0429 108.093 45.7523C108.051 45.2541 107.8 45.005 107.34 44.9219ZM105.623 43.5518H106.712C107.005 43.5518 107.214 43.5934 107.382 43.7179C107.549 43.8425 107.633 43.967 107.633 44.1746C107.633 44.3822 107.549 44.5483 107.382 44.6313C107.214 44.7559 107.005 44.7974 106.712 44.7974H105.623V43.5518ZM106.754 46.375H105.623V45.0465H106.837C107.172 45.0465 107.382 45.088 107.549 45.2125C107.716 45.3371 107.758 45.5032 107.758 45.7108C107.758 46.1675 107.423 46.375 106.754 46.375ZM111.442 43.4688C111.191 43.3027 110.898 43.2612 110.563 43.2612C110.228 43.2612 109.935 43.3443 109.684 43.4688C109.433 43.6349 109.224 43.801 109.056 44.0916C108.889 44.3407 108.847 44.6313 108.847 44.9634C108.847 45.2956 108.931 45.5862 109.056 45.8353C109.224 46.0844 109.391 46.292 109.684 46.4581C109.935 46.6241 110.228 46.6657 110.563 46.6657C110.898 46.6657 111.191 46.5826 111.442 46.4581C111.694 46.292 111.903 46.1259 112.07 45.8353C112.238 45.5862 112.28 45.2956 112.28 44.9634C112.28 44.6313 112.196 44.3407 112.07 44.0916C111.945 43.8425 111.694 43.5934 111.442 43.4688ZM111.777 45.7108C111.652 45.9183 111.484 46.0844 111.275 46.209C111.066 46.3335 110.856 46.375 110.563 46.375C110.312 46.375 110.061 46.3335 109.852 46.209C109.642 46.0844 109.475 45.9183 109.349 45.7108C109.224 45.5032 109.182 45.2541 109.182 44.9634C109.182 44.6728 109.224 44.4237 109.349 44.2161C109.475 44.0085 109.642 43.8425 109.852 43.7179C110.061 43.5934 110.27 43.5518 110.563 43.5518C110.814 43.5518 111.066 43.5934 111.275 43.7179C111.484 43.8425 111.652 44.0085 111.777 44.2161C111.903 44.4237 111.945 44.6728 111.945 44.9634C111.945 45.2125 111.903 45.4617 111.777 45.7108ZM102.4 40.6041C102.609 40.4796 102.776 40.355 102.86 40.1474V40.7287H103.153V38.6113C103.153 38.1961 103.028 37.9055 102.818 37.6564C102.609 37.4488 102.274 37.3242 101.855 37.3242C101.604 37.3242 101.353 37.3657 101.102 37.4488C100.851 37.5318 100.641 37.6564 100.474 37.7809L100.641 38.03C100.767 37.9055 100.976 37.7809 101.186 37.7394C101.395 37.6979 101.604 37.6148 101.814 37.6148C102.149 37.6148 102.4 37.6979 102.567 37.8639C102.735 38.03 102.818 38.2791 102.818 38.5697V38.8604H101.646C101.186 38.8604 100.893 38.9434 100.683 39.1095C100.474 39.2755 100.39 39.5246 100.39 39.7738C100.39 40.0644 100.516 40.3135 100.725 40.4796C100.934 40.6456 101.228 40.7287 101.604 40.7287C101.939 40.7702 102.19 40.7287 102.4 40.6041ZM100.767 39.8153C100.767 39.6077 100.851 39.4416 100.976 39.3171C101.102 39.1925 101.353 39.151 101.688 39.151H102.86V39.7738C102.776 40.0229 102.609 40.1889 102.4 40.355C102.19 40.4795 101.981 40.5626 101.688 40.5626C101.395 40.5626 101.144 40.4795 100.976 40.355C100.809 40.2304 100.767 40.0229 100.767 39.8153Z" fill="#1338BD"/>
<path d="M16.2842 28.564C22.3127 28.6471 27.1689 27.8167 28.8853 26.5712C30.6018 25.3257 29.1365 24.7029 28.4667 23.748C27.8806 22.9176 27.462 21.2984 28.4667 20.3851C26.0804 21.2569 24.364 21.9212 24.5733 24.0386C24.7826 26.156 18.21 26.3636 10.7163 26.4881C3.13889 26.5712 -0.54516 31.0551 0.0828025 34.5425C0.292123 31.6778 4.81345 28.3979 16.2842 28.564ZM16.2842 46.4996C22.3127 46.5826 27.1689 45.7523 28.8853 44.5068C30.6018 43.2612 29.4296 41.642 28.4667 37.8639C27.0433 32.3421 27.462 28.8131 28.4667 27.8997C26.0804 28.7716 24.071 30.1417 26.2898 41.1023C26.7084 43.1782 18.21 44.2992 10.6744 44.3822C3.13889 44.5068 -0.54516 48.9907 0.0409384 52.4781C0.292123 49.6134 4.81345 46.3335 16.2842 46.4996ZM0.208395 26.4466C2.25974 22.4194 9.87901 21.7551 16.2842 21.3815C16.2842 21.3815 29.6808 21.1739 29.6808 18.9319C29.6808 17.811 27.8387 16.3163 25.285 14.9878C25.285 14.9878 20.345 12.2476 18.503 10.9191C16.661 9.5905 17.2052 6.80883 17.2052 5.89544C17.2052 4.98206 16.1168 4.98206 16.033 5.72937C16.033 6.5182 16.2424 6.72579 15.6563 7.30704C15.0702 7.88828 13.8142 7.18249 11.8048 9.00926C11.8048 9.00926 14.5259 8.22042 14.5259 9.46595C14.5259 10.7115 13.4793 11.874 8.74868 13.3271C5.19023 14.282 1.42246 15.8597 0.292123 18.1431C2.3016 15.6105 11.721 14.6972 15.8656 14.9463C19.9683 15.1539 22.815 16.773 22.815 17.4788C22.815 18.1846 0.208395 18.8904 0.208395 26.4466ZM29.2621 51.5647C28.7179 51.025 26.7084 48.4924 28.9691 46.4581C22.4801 48.3264 23.2337 50.9835 24.5733 53.0178C25.913 55.0522 8.4975 58.4151 1.50618 55.7995C7.03225 59.0379 21.4335 58.166 26.2898 56.6714C31.146 55.1768 29.8063 52.1045 29.2621 51.5647ZM14.4003 4.19322C16.0749 4.19322 17.7495 4.40081 17.582 5.48027C18.0007 3.86108 17.8332 0.415126 17.2471 0.207538C16.661 0.0414679 12.1815 -0.0830847 11.3443 0.207538C10.507 0.498161 10.9256 3.9026 11.3443 5.48027C11.2605 4.31777 12.8095 4.19322 14.4003 4.19322Z" fill="#1338BD"/>
</g>
<defs>
<clipPath id="clip0">
<rect width="159" height="58" fill="white"/>
</clipPath>
</defs>
</svg>
