<?xml version="1.0" encoding="utf-8"?>
<!-- Generator: Adobe Illustrator 27.6.1, SVG Export Plug-In . SVG Version: 6.00 Build 0)  -->
<svg version="1.1" id="Layer_1" xmlns="http://www.w3.org/2000/svg" xmlns:xlink="http://www.w3.org/1999/xlink" x="0px" y="0px"
	 viewBox="0 0 159 58" style="enable-background:new 0 0 159 58;" xml:space="preserve">
<style type="text/css">
	.st0{fill:#1338BD;}
</style>
<path class="st0" d="M16.1,28.5c6,0.1,10.7-0.7,12.4-2c1.7-1.2,0.2-1.8-0.4-2.8c-0.6-0.8-1-2.4,0-3.3c-2.4,0.9-4.1,1.5-3.8,3.6
	c0.2,2.1-6.3,2.3-13.7,2.4c-7.5,0.1-11.1,4.5-10.5,8C0.3,31.6,4.8,28.4,16.1,28.5z M16.1,46.3c6,0.1,10.7-0.7,12.4-2
	c1.7-1.2,0.5-2.8-0.4-6.6c-1.4-5.5-1-8.9,0-9.8c-2.4,0.9-4.3,2.2-2.1,13.1c0.4,2.1-8,3.2-15.4,3.2c-7.4,0.1-11.1,4.6-10.5,8
	C0.3,49.4,4.8,46.1,16.1,46.3z M0.2,26.5c2-4,9.5-4.6,15.9-5c0,0,13.2-0.2,13.2-2.4c0-1.1-1.8-2.6-4.3-3.9c0,0-4.9-2.7-6.7-4
	C16.5,9.8,17,7,17,6.1c0-0.9-1.1-0.9-1.2-0.2c0,0.8,0.2,1-0.4,1.6c-0.6,0.6-1.8-0.1-3.8,1.7c0,0,2.7-0.8,2.7,0.5
	c0,1.2-1,2.4-5.7,3.8c-3.5,0.9-7.2,2.5-8.3,4.8c2-2.5,11.3-3.4,15.4-3.2c4.1,0.2,6.9,1.8,6.9,2.5S0.2,19,0.2,26.5z M28.9,51.3
	c-0.5-0.5-2.5-3-0.3-5c-6.4,1.8-5.7,4.5-4.3,6.5c1.3,2-15.9,5.3-22.8,2.7C7,58.7,21.2,57.8,26,56.3C30.8,54.9,29.4,51.8,28.9,51.3z
	 M14.2,4.5c1.7,0,3.3,0.2,3.1,1.3c0.4-1.6,0.2-5-0.3-5.2c-0.6-0.2-5-0.3-5.8,0c-0.8,0.3-0.4,3.7,0,5.2C11.1,4.6,12.7,4.5,14.2,4.5z"
	/>
<g>
	<path class="st0" d="M50.7,16.6c-1.2-0.6-2.6-1-4.2-1c-1.6,0-3,0.3-4.2,1c-1.2,0.6-2.2,1.6-2.9,2.8s-1,2.7-1,4.5V33h4.8v-3.8h6.7
		V33h4.8v-9.2c0-1.8-0.3-3.3-1-4.5C52.9,18.1,52,17.2,50.7,16.6z M43.1,25.5v-2.1c0-1.3,0.3-2.3,0.9-2.9c0.6-0.6,1.4-0.9,2.4-0.9
		c1,0,1.8,0.3,2.4,0.9c0.6,0.6,0.9,1.6,0.9,2.9v2.1H43.1z"/>
	<polygon class="st0" points="74.2,15.9 69.1,15.9 65,22.6 62.7,22.6 62.7,15.9 57.9,15.9 57.9,33 62.7,33 62.7,26.5 64.9,26.5 
		68.8,33 74.2,33 68.8,24.2 	"/>
	<path class="st0" d="M89.7,24.8c-0.4-0.3-0.9-0.5-1.5-0.7c0.3-0.1,0.5-0.3,0.7-0.5c1.1-0.8,1.6-1.9,1.6-3.3c0-1.4-0.6-2.5-1.7-3.3
		c-1.1-0.8-2.7-1.2-4.8-1.2h-8.3V33h8.7c2.2,0,3.9-0.4,5-1.3c1.2-0.9,1.7-2.1,1.7-3.6C91.3,26.7,90.8,25.6,89.7,24.8z M80.5,19.4
		h3.1c0.7,0,1.2,0.1,1.5,0.4c0.3,0.3,0.5,0.7,0.5,1.3c0,0.6-0.2,1-0.5,1.3c-0.3,0.3-0.9,0.4-1.5,0.4h-3.1V19.4z M85.9,29.1
		c-0.3,0.3-0.9,0.5-1.6,0.5h-3.8V26h3.8c0.7,0,1.2,0.1,1.6,0.4c0.3,0.3,0.5,0.7,0.5,1.3S86.2,28.8,85.9,29.1z"/>
	<path class="st0" d="M106,16.6c-1.2-0.6-2.6-1-4.2-1c-1.6,0-3,0.3-4.2,1c-1.2,0.6-2.2,1.6-2.9,2.8c-0.7,1.2-1,2.7-1,4.5V33h4.8
		v-3.8h6.7V33h4.8v-9.2c0-1.8-0.3-3.3-1-4.5S107.2,17.2,106,16.6z M98.4,25.5v-2.1c0-1.3,0.3-2.3,0.9-2.9c0.6-0.6,1.4-0.9,2.4-0.9
		c1,0,1.8,0.3,2.4,0.9c0.6,0.6,0.9,1.6,0.9,2.9v2.1H98.4z"/>
	<path class="st0" d="M114.9,27.7c-0.8,0-1.4,0.2-2,0.7c-0.5,0.5-0.8,1.2-0.8,2c0,0.8,0.3,1.5,0.8,2c0.5,0.5,1.2,0.8,2,0.8
		c0.8,0,1.4-0.3,2-0.8c0.5-0.5,0.8-1.2,0.8-2c0-0.8-0.3-1.5-0.8-2C116.3,28,115.6,27.7,114.9,27.7z"/>
	<path class="st0" d="M132,16.7c-1.1-0.5-2.5-0.8-4-0.8h-7.8V33h4.8v-4.5h3c1.6,0,2.9-0.3,4-0.8c1.1-0.5,2-1.2,2.6-2.2
		c0.6-0.9,0.9-2.1,0.9-3.3c0-1.3-0.3-2.4-0.9-3.4C134,17.9,133.1,17.2,132,16.7z M129.9,24.1c-0.5,0.4-1.2,0.7-2.3,0.7H125v-5h2.7
		c1,0,1.8,0.2,2.3,0.7c0.5,0.4,0.7,1.1,0.7,1.9C130.7,23,130.4,23.7,129.9,24.1z"/>
	<path class="st0" d="M158.2,21c-0.5-1.1-1.2-2-2.2-2.8c-1-0.8-2.1-1.4-3.5-1.9c-1.4-0.4-2.9-0.7-4.7-0.7c-1.7,0-3.3,0.2-4.7,0.7
		c-1.4,0.4-2.5,1.1-3.5,1.9c-1,0.8-1.7,1.7-2.2,2.8c-0.5,1.1-0.7,2.2-0.7,3.5s0.2,2.4,0.7,3.5c0.5,1.1,1.2,2,2.2,2.8
		c1,0.8,2.1,1.4,3.5,1.9c1.4,0.4,2.9,0.7,4.7,0.7c1.8,0,3.3-0.2,4.7-0.7c1.4-0.4,2.5-1.1,3.5-1.9c1-0.8,1.7-1.7,2.2-2.8
		c0.5-1.1,0.8-2.2,0.8-3.5S158.7,22,158.2,21z M143,28.1c-0.5-0.5-0.9-1-1.2-1.6c-0.3-0.6-0.4-1.3-0.4-2c0-0.7,0.1-1.4,0.4-2
		c0.3-0.6,0.7-1.1,1.2-1.6c0.5-0.4,1.2-0.8,2-1c0.2-0.1,0.4-0.1,0.6-0.2v9.7c-0.2,0-0.4-0.1-0.6-0.2C144.2,28.9,143.6,28.6,143,28.1
		z M154,26.5c-0.3,0.6-0.7,1.2-1.2,1.6s-1.2,0.8-2,1c-0.2,0.1-0.4,0.1-0.6,0.2v-9.7c0.2,0,0.4,0.1,0.6,0.2c0.8,0.2,1.5,0.6,2,1
		c0.5,0.4,0.9,1,1.2,1.6c0.3,0.6,0.4,1.3,0.4,2C154.4,25.2,154.2,25.9,154,26.5z"/>
</g>
<g>
	<path class="st0" d="M43.9,39.2h-4.2l-0.1,1.6c0,0.4,0,0.7-0.1,1c0,0.3-0.1,0.6-0.1,0.8c-0.1,0.2-0.2,0.4-0.3,0.5
		c-0.1,0.1-0.3,0.2-0.4,0.2h-0.2v2.2h1.4v-1h3.3v1h1.3v-2.2h-0.7V39.2z M40.6,43.1c0.1-0.2,0.1-0.3,0.2-0.6c0-0.2,0.1-0.5,0.1-0.7
		c0-0.3,0-0.5,0.1-0.8l0-0.6h1.5v2.9h-2C40.5,43.2,40.5,43.2,40.6,43.1z"/>
	<path class="st0" d="M49.9,39.9c-0.3-0.2-0.6-0.4-0.9-0.6c-0.3-0.1-0.7-0.2-1.2-0.2c-0.4,0-0.8,0.1-1.2,0.2
		c-0.4,0.1-0.7,0.3-0.9,0.6c-0.3,0.2-0.5,0.5-0.6,0.9C45,41.1,45,41.5,45,41.8s0.1,0.8,0.2,1.1c0.1,0.3,0.3,0.6,0.6,0.9
		c0.3,0.2,0.6,0.4,0.9,0.6c0.4,0.1,0.7,0.2,1.2,0.2c0.4,0,0.8-0.1,1.2-0.2c0.3-0.1,0.7-0.3,0.9-0.6c0.3-0.2,0.5-0.5,0.6-0.9
		c0.1-0.3,0.2-0.7,0.2-1.1s-0.1-0.8-0.2-1.1C50.4,40.4,50.2,40.2,49.9,39.9z M49.2,42.5c-0.1,0.2-0.2,0.3-0.3,0.5
		c-0.1,0.1-0.3,0.2-0.4,0.3s-0.4,0.1-0.6,0.1c-0.2,0-0.4,0-0.6-0.1c-0.2-0.1-0.3-0.2-0.4-0.3c-0.1-0.1-0.2-0.3-0.3-0.5
		c-0.1-0.2-0.1-0.4-0.1-0.6c0-0.2,0-0.4,0.1-0.6c0.1-0.2,0.2-0.3,0.3-0.5c0.1-0.1,0.3-0.2,0.4-0.3c0.2-0.1,0.4-0.1,0.6-0.1
		c0.2,0,0.4,0,0.6,0.1s0.3,0.2,0.4,0.3c0.1,0.1,0.2,0.3,0.3,0.5c0.1,0.2,0.1,0.4,0.1,0.6C49.3,42.1,49.2,42.3,49.2,42.5z"/>
	<path class="st0" d="M53.1,40.8c0.1-0.1,0.3-0.2,0.5-0.3c0.2-0.1,0.4-0.1,0.6-0.1c0.2,0,0.5,0.1,0.7,0.2c0.2,0.1,0.4,0.3,0.6,0.5
		l0.9-0.8c-0.3-0.3-0.6-0.6-0.9-0.7c-0.4-0.2-0.8-0.3-1.3-0.3c-0.4,0-0.8,0.1-1.1,0.2c-0.3,0.1-0.7,0.3-0.9,0.6
		c-0.3,0.2-0.5,0.5-0.6,0.9c-0.1,0.3-0.2,0.7-0.2,1.1s0.1,0.8,0.2,1.1c0.1,0.3,0.3,0.6,0.6,0.9c0.3,0.2,0.6,0.4,0.9,0.6
		c0.3,0.1,0.7,0.2,1.1,0.2c0.5,0,0.9-0.1,1.3-0.3c0.4-0.2,0.7-0.4,0.9-0.7l-0.9-0.8c-0.2,0.2-0.4,0.3-0.6,0.5
		c-0.2,0.1-0.4,0.2-0.7,0.2c-0.2,0-0.4,0-0.6-0.1c-0.2-0.1-0.3-0.2-0.5-0.3c-0.1-0.1-0.2-0.3-0.3-0.5c-0.1-0.2-0.1-0.4-0.1-0.6
		c0-0.2,0-0.4,0.1-0.6C52.9,41.1,53,40.9,53.1,40.8z"/>
	<polygon class="st0" points="61.1,40.4 61.1,39.2 56.5,39.2 56.5,40.4 58.1,40.4 58.1,44.4 59.5,44.4 59.5,40.4 	"/>
	<path class="st0" d="M63.3,39.2L61,44.4h1.5l0.4-1h2.2l0.4,1h1.5l-2.3-5.2H63.3z M63.4,42.4l0.7-1.7l0.7,1.7H63.4z"/>
	<path class="st0" d="M71.9,41.9c-0.1-0.1-0.3-0.2-0.5-0.2c0.1,0,0.2-0.1,0.2-0.1c0.3-0.2,0.5-0.6,0.5-1c0-0.4-0.2-0.8-0.5-1
		c-0.3-0.2-0.8-0.4-1.5-0.4h-2.5v5.2h2.7c0.7,0,1.2-0.1,1.5-0.4c0.4-0.3,0.5-0.6,0.5-1.1C72.4,42.5,72.2,42.2,71.9,41.9z M69.1,40.3
		H70c0.2,0,0.4,0,0.5,0.1c0.1,0.1,0.2,0.2,0.2,0.4c0,0.2-0.1,0.3-0.2,0.4c-0.1,0.1-0.3,0.1-0.5,0.1h-0.9V40.3z M70.7,43.3
		c-0.1,0.1-0.3,0.1-0.5,0.1h-1.2v-1.1h1.2c0.2,0,0.4,0,0.5,0.1c0.1,0.1,0.2,0.2,0.2,0.4S70.9,43.2,70.7,43.3z"/>
	<path class="st0" d="M80.3,39.2l-2.2,5l-1.5-2.5l1.6-2.5h-1.5l-1.2,2h-0.7v-2h-1.5v5.2h1.5v-2h0.7l1.2,2H78h0.2h1.3l0.4-1h2.2
		l0.4,1H84l-2.3-5.2H80.3z M80.3,42.4l0.7-1.7l0.7,1.7H80.3z"/>
	<polygon class="st0" points="86.8,44.4 88.2,44.4 88.2,40.4 90.2,40.4 90.2,44.4 91.6,44.4 91.6,39.2 86.8,39.2 	"/>
	<polygon class="st0" points="94.2,42.3 94.2,39.2 92.8,39.2 92.8,44.4 94.2,44.4 96.3,41.4 96.3,44.4 97.7,44.4 97.7,39.2 
		96.4,39.2 	"/>
	<polygon class="st0" points="98.4,40.4 100,40.4 100,44.4 101.5,44.4 101.5,40.4 103,40.4 103,39.2 98.4,39.2 	"/>
	<path class="st0" d="M106.4,40.9h-1.2v-1.7h-1.4v5.2h2.5c0.7,0,1.2-0.2,1.6-0.5c0.4-0.3,0.6-0.8,0.6-1.4c0-0.6-0.2-1-0.5-1.3
		C107.5,41,107,40.9,106.4,40.9z M106.7,43.2c-0.1,0.1-0.3,0.2-0.6,0.2h-0.9v-1.4h0.9c0.2,0,0.4,0.1,0.6,0.2
		c0.1,0.1,0.2,0.3,0.2,0.5C106.9,42.9,106.8,43.1,106.7,43.2z"/>
	<polygon class="st0" points="110.6,42.4 112.9,42.4 112.9,41.3 110.6,41.3 110.6,40.4 113.2,40.4 113.2,39.2 109.1,39.2 
		109.1,44.4 113.3,44.4 113.3,43.3 110.6,43.3 	"/>
	<path class="st0" d="M118.4,41.9c-0.1-0.1-0.3-0.2-0.5-0.2c0.1,0,0.2-0.1,0.2-0.1c0.3-0.2,0.5-0.6,0.5-1c0-0.4-0.2-0.8-0.5-1
		c-0.3-0.2-0.8-0.4-1.5-0.4h-2.5v5.2h2.7c0.7,0,1.2-0.1,1.5-0.4c0.4-0.3,0.5-0.6,0.5-1.1C118.9,42.5,118.7,42.2,118.4,41.9z
		 M115.6,40.3h0.9c0.2,0,0.4,0,0.5,0.1c0.1,0.1,0.2,0.2,0.2,0.4c0,0.2-0.1,0.3-0.2,0.4c-0.1,0.1-0.3,0.1-0.5,0.1h-0.9V40.3z
		 M117.2,43.3c-0.1,0.1-0.3,0.1-0.5,0.1h-1.2v-1.1h1.2c0.2,0,0.4,0,0.5,0.1c0.1,0.1,0.2,0.2,0.2,0.4S117.3,43.2,117.2,43.3z"/>
	<path class="st0" d="M124.3,39.9c-0.3-0.2-0.6-0.4-0.9-0.6c-0.3-0.1-0.7-0.2-1.2-0.2c-0.4,0-0.8,0.1-1.2,0.2
		c-0.4,0.1-0.7,0.3-0.9,0.6c-0.3,0.2-0.5,0.5-0.6,0.9c-0.1,0.3-0.2,0.7-0.2,1.1s0.1,0.8,0.2,1.1c0.1,0.3,0.3,0.6,0.6,0.9
		c0.3,0.2,0.6,0.4,0.9,0.6c0.4,0.1,0.7,0.2,1.2,0.2c0.4,0,0.8-0.1,1.2-0.2c0.3-0.1,0.7-0.3,0.9-0.6c0.3-0.2,0.5-0.5,0.6-0.9
		c0.1-0.3,0.2-0.7,0.2-1.1s-0.1-0.8-0.2-1.1C124.7,40.4,124.5,40.2,124.3,39.9z M123.5,42.5c-0.1,0.2-0.2,0.3-0.3,0.5
		c-0.1,0.1-0.3,0.2-0.4,0.3c-0.2,0.1-0.4,0.1-0.6,0.1c-0.2,0-0.4,0-0.6-0.1c-0.2-0.1-0.3-0.2-0.4-0.3c-0.1-0.1-0.2-0.3-0.3-0.5
		c-0.1-0.2-0.1-0.4-0.1-0.6c0-0.2,0-0.4,0.1-0.6c0.1-0.2,0.2-0.3,0.3-0.5c0.1-0.1,0.3-0.2,0.4-0.3c0.2-0.1,0.4-0.1,0.6-0.1
		c0.2,0,0.4,0,0.6,0.1c0.2,0.1,0.3,0.2,0.4,0.3c0.1,0.1,0.2,0.3,0.3,0.5c0.1,0.2,0.1,0.4,0.1,0.6C123.6,42.1,123.6,42.3,123.5,42.5z
		"/>
	<path class="st0" d="M128.4,38.9c0.5,0,0.9-0.1,1.2-0.3c0.2-0.2,0.4-0.5,0.4-0.9h-1c0,0.2-0.1,0.3-0.1,0.4s-0.2,0.1-0.4,0.1
		c-0.2,0-0.3,0-0.4-0.1c-0.1-0.1-0.1-0.2-0.1-0.4h-1c0,0.4,0.1,0.7,0.4,0.9C127.5,38.8,127.8,38.9,128.4,38.9z"/>
	<polygon class="st0" points="127.3,42.3 127.3,39.2 125.9,39.2 125.9,44.4 127.3,44.4 129.4,41.4 129.4,44.4 130.9,44.4 
		130.9,39.2 129.5,39.2 	"/>
	<path class="st0" d="M138.4,41.9c-0.1-0.1-0.3-0.2-0.5-0.2c0.1,0,0.2-0.1,0.2-0.1c0.3-0.2,0.5-0.6,0.5-1c0-0.4-0.2-0.8-0.5-1
		c-0.3-0.2-0.8-0.4-1.5-0.4h-2.5v5.2h2.7c0.7,0,1.2-0.1,1.5-0.4c0.4-0.3,0.5-0.6,0.5-1.1C138.9,42.5,138.7,42.2,138.4,41.9z
		 M135.6,40.3h0.9c0.2,0,0.4,0,0.5,0.1c0.1,0.1,0.2,0.2,0.2,0.4c0,0.2-0.1,0.3-0.2,0.4c-0.1,0.1-0.3,0.1-0.5,0.1h-0.9V40.3z
		 M137.2,43.3c-0.1,0.1-0.3,0.1-0.5,0.1h-1.2v-1.1h1.2c0.2,0,0.4,0,0.5,0.1c0.1,0.1,0.2,0.2,0.2,0.4S137.3,43.2,137.2,43.3z"/>
	<path class="st0" d="M144.3,39.9c-0.3-0.2-0.6-0.4-0.9-0.6c-0.3-0.1-0.7-0.2-1.2-0.2c-0.4,0-0.8,0.1-1.2,0.2
		c-0.4,0.1-0.7,0.3-0.9,0.6c-0.3,0.2-0.5,0.5-0.6,0.9c-0.1,0.3-0.2,0.7-0.2,1.1s0.1,0.8,0.2,1.1c0.1,0.3,0.3,0.6,0.6,0.9
		c0.3,0.2,0.6,0.4,0.9,0.6c0.4,0.1,0.7,0.2,1.2,0.2c0.4,0,0.8-0.1,1.2-0.2c0.3-0.1,0.7-0.3,0.9-0.6c0.3-0.2,0.5-0.5,0.6-0.9
		c0.1-0.3,0.2-0.7,0.2-1.1s-0.1-0.8-0.2-1.1C144.8,40.4,144.6,40.2,144.3,39.9z M143.5,42.5c-0.1,0.2-0.2,0.3-0.3,0.5
		c-0.1,0.1-0.3,0.2-0.4,0.3s-0.4,0.1-0.6,0.1c-0.2,0-0.4,0-0.6-0.1c-0.2-0.1-0.3-0.2-0.4-0.3c-0.1-0.1-0.2-0.3-0.3-0.5
		c-0.1-0.2-0.1-0.4-0.1-0.6c0-0.2,0-0.4,0.1-0.6c0.1-0.2,0.2-0.3,0.3-0.5c0.1-0.1,0.3-0.2,0.4-0.3c0.2-0.1,0.4-0.1,0.6-0.1
		c0.2,0,0.4,0,0.6,0.1s0.3,0.2,0.4,0.3c0.1,0.1,0.2,0.3,0.3,0.5c0.1,0.2,0.1,0.4,0.1,0.6C143.6,42.1,143.6,42.3,143.5,42.5z"/>
	<path class="st0" d="M150.7,39.2h-4.2l-0.1,1.6c0,0.4,0,0.7-0.1,1c0,0.3-0.1,0.6-0.1,0.8c-0.1,0.2-0.2,0.4-0.3,0.5
		c-0.1,0.1-0.3,0.2-0.4,0.2h-0.2v2.2h1.4v-1h3.3v1h1.3v-2.2h-0.7V39.2z M147.3,43.1c0.1-0.2,0.1-0.3,0.2-0.6c0-0.2,0.1-0.5,0.1-0.7
		c0-0.3,0-0.5,0.1-0.8l0-0.6h1.5v2.9h-2C147.3,43.2,147.3,43.2,147.3,43.1z"/>
	<rect x="157.3" y="39.2" class="st0" width="1.4" height="5.2"/>
	<path class="st0" d="M154.7,40.9h-1.2v-1.7h-1.4v5.2h2.5c0.7,0,1.2-0.2,1.6-0.5c0.4-0.3,0.6-0.8,0.6-1.4c0-0.6-0.2-1-0.5-1.3
		C155.8,41,155.4,40.9,154.7,40.9z M155,43.2c-0.1,0.1-0.3,0.2-0.6,0.2h-0.9v-1.4h0.9c0.2,0,0.4,0.1,0.6,0.2
		c0.1,0.1,0.2,0.3,0.2,0.5C155.2,42.9,155.2,43.1,155,43.2z"/>
</g>
</svg>
