<svg width="72" height="72" viewBox="0 0 72 72" fill="none" xmlns="http://www.w3.org/2000/svg">
<path d="M37.9203 35.5737C44.1767 35.651 49.2165 34.8776 50.9979 33.7175C52.7792 32.5574 51.2585 31.9774 50.5634 31.088C49.9551 30.3146 49.5207 28.8065 50.5634 27.9558C48.0869 28.7678 46.3056 29.3865 46.5228 31.3587C46.74 33.3308 39.9188 33.5242 32.1418 33.6402C24.2778 33.7175 20.4545 37.8938 21.1062 41.1421C21.3234 38.4739 26.0157 35.419 37.9203 35.5737ZM37.9203 52.2789C44.1767 52.3562 49.2165 51.5828 50.9979 50.4227C52.7792 49.2627 51.5627 47.7545 50.5634 44.2356C49.0862 39.0926 49.5207 35.8057 50.5634 34.9549C48.0869 35.767 46.0014 37.0431 48.3041 47.2518C48.7386 49.1853 39.9188 50.2294 32.0983 50.3067C24.2778 50.4227 20.4545 54.5991 21.0628 57.8473C21.3234 55.1791 26.0157 52.1242 37.9203 52.2789ZM21.2365 33.6015C23.3655 29.8506 31.2728 29.2319 37.9203 28.8838C37.9203 28.8838 51.8234 28.6905 51.8234 26.6023C51.8234 25.5582 49.9117 24.1661 47.2614 22.9287C47.2614 22.9287 42.1346 20.3765 40.223 19.1391C38.3113 17.9017 38.8761 15.3108 38.8761 14.4601C38.8761 13.6094 37.7465 13.6094 37.6596 14.3054C37.6596 15.0401 37.8768 15.2335 37.2686 15.7749C36.6603 16.3162 35.3569 15.6589 33.2714 17.3603C33.2714 17.3603 36.0955 16.6256 36.0955 17.7857C36.0955 18.9458 35.0093 20.0285 30.0998 21.3819C26.4068 22.2713 22.4965 23.7408 21.3234 25.8676C23.4089 23.5088 33.1845 22.658 37.4858 22.8901C41.7436 23.0834 44.698 24.5915 44.698 25.2489C44.698 25.9063 21.2365 26.5637 21.2365 33.6015ZM51.3889 56.9966C50.8241 56.4939 48.7386 54.135 51.0847 52.2402C44.3504 53.9803 45.1325 56.4552 46.5228 58.35C47.9131 60.2448 29.8391 63.377 22.5834 60.9408C28.3184 63.9571 43.2643 63.145 48.3041 61.7529C53.344 60.3608 51.9537 57.4993 51.3889 56.9966ZM35.9651 12.8746C37.703 12.8746 39.4409 13.068 39.2671 14.0734C39.7016 12.5653 39.5278 9.35572 38.9195 9.16238C38.3113 9.0077 33.6624 8.89169 32.7935 9.16238C31.9245 9.43306 32.359 12.604 32.7935 14.0734C32.7066 12.9907 34.3141 12.8746 35.9651 12.8746Z" fill="#1338BD"/>
</svg>
