<svg width="238" height="92" viewBox="0 0 238 92" fill="none" xmlns="http://www.w3.org/2000/svg">
<g clip-path="url(#clip0)" filter="url(#filter0_d)">
<path d="M65.1635 34.5893C65.8902 34.1684 66.738 33.988 67.6463 33.988C69.2209 33.988 70.5531 34.6495 71.6432 35.9723L74.7317 33.2064C73.8838 32.1842 72.8543 31.4025 71.5826 30.8613C70.3109 30.3202 68.9181 30.0195 67.3436 30.0195C65.5268 30.0195 63.9523 30.3803 62.4989 31.162C61.1061 31.8835 59.9555 32.9658 59.1682 34.2887C58.3809 35.6115 57.957 37.1749 57.957 38.8585C57.957 40.5421 58.3809 42.0453 59.1682 43.4283C59.9555 44.7511 61.1061 45.8334 62.4989 46.555C63.8917 47.2765 65.5268 47.6974 67.3436 47.6974C68.9181 47.6974 70.3109 47.3968 71.5826 46.8556C72.8543 46.3144 73.8838 45.5328 74.7317 44.5106L71.6432 41.7447C70.5531 43.0675 69.2209 43.7289 67.6463 43.7289C66.738 43.7289 65.8902 43.5485 65.1635 43.1276C64.4368 42.7067 63.8917 42.1656 63.4678 41.444C63.0439 40.7225 62.8622 39.8807 62.8622 38.9186C62.8622 37.9565 63.0439 37.1147 63.4678 36.3932C63.8917 35.5514 64.4368 34.9501 65.1635 34.5893ZM81.6958 40.482H89.2656V36.8742H81.6958V33.988H90.2951V30.26H76.9117V47.2164H90.5979V43.4884H81.6958V40.482ZM105.192 31.1019C104.042 30.6208 102.71 30.3202 101.196 30.3202H93.3836V47.2765H98.2282V42.827H101.196C102.77 42.827 104.102 42.5865 105.192 42.0453C106.343 41.5643 107.191 40.8427 107.796 39.8807C108.402 38.9186 108.705 37.8363 108.705 36.5736C108.705 35.3109 108.402 34.1684 107.796 33.2665C107.251 32.3044 106.343 31.5829 105.192 31.1019ZM103.133 38.4376C102.649 38.8585 101.862 39.099 100.893 39.099H98.2282V34.1083H100.893C101.862 34.1083 102.649 34.3488 103.133 34.7697C103.618 35.1906 103.86 35.7919 103.86 36.6337C103.86 37.4755 103.678 38.0167 103.133 38.4376ZM115.73 40.482H123.299V36.8742H115.73V33.988H124.329V30.26H110.945V47.2164H124.632V43.4884H115.73V40.482ZM141.346 38.0768C140.256 37.235 138.681 36.754 136.562 36.754H132.141V33.988H141.648V30.26H127.357V47.2164H135.895C138.136 47.2164 139.832 46.7354 141.103 45.7733C142.315 44.8112 142.981 43.4884 142.981 41.7447C142.981 40.1813 142.436 38.9186 141.346 38.0768ZM137.47 43.3681C137.046 43.6688 136.44 43.8492 135.593 43.8492H132.141V40.1813H135.593C137.228 40.1813 138.076 40.7826 138.076 41.9852C138.136 42.5865 137.894 43.0074 137.47 43.3681ZM157.333 31.1019C156.182 30.6208 154.85 30.3202 153.336 30.3202H145.524V47.2765H150.369V42.827H153.336C154.85 42.827 156.243 42.5865 157.333 42.0453C158.484 41.5643 159.331 40.8427 159.937 39.8807C160.543 38.9186 160.845 37.8363 160.845 36.5736C160.845 35.3109 160.543 34.1684 159.937 33.2665C159.331 32.3044 158.423 31.5829 157.333 31.1019ZM155.213 38.4376C154.729 38.8585 153.942 39.099 152.973 39.099H150.308V34.1083H152.973C153.942 34.1083 154.729 34.3488 155.213 34.7697C155.698 35.1906 155.94 35.7919 155.94 36.6337C155.94 37.4755 155.759 38.0167 155.213 38.4376ZM165.266 31.1019C164.116 31.643 163.207 32.3646 162.602 33.3266C161.996 34.2887 161.693 35.4311 161.693 36.754C161.693 38.0768 161.996 39.1591 162.602 40.1212C163.207 41.0832 164.055 41.8048 165.206 42.2858L161.754 47.2765H166.841L169.626 43.0074H172.23V47.2765H177.014V30.3202H169.324C167.749 30.3202 166.417 30.5607 165.266 31.1019ZM172.23 34.1083V39.3395H169.324C168.415 39.3395 167.688 39.099 167.265 38.6781C166.78 38.2572 166.538 37.5958 166.538 36.754C166.538 35.0102 167.507 34.1684 169.384 34.1684H172.23V34.1083ZM192.033 36.6938H185.432V30.3202H180.587V47.2765H185.432V40.6623H192.033V47.2765H196.878V30.3202H192.033V36.6938ZM206.385 30.3202L198.876 47.2765H203.781L205.113 43.9694H212.32L213.652 47.2765H218.678L211.109 30.3202H206.385ZM206.506 40.4218L208.686 35.0102L210.866 40.4218H206.506ZM226.309 30.3202C224.734 30.3202 223.402 30.5607 222.251 31.1019C221.101 31.643 220.192 32.3646 219.587 33.3266C218.981 34.2887 218.678 35.4311 218.678 36.754C218.678 38.0768 218.981 39.1591 219.587 40.1212C220.192 41.0832 221.04 41.8048 222.191 42.2858L218.739 47.2765H223.826L226.612 43.0074H229.216V47.2765H234V30.3202H226.309ZM229.216 39.3395H226.309C225.4 39.3395 224.674 39.099 224.25 38.6781C223.765 38.2572 223.523 37.5958 223.523 36.754C223.523 35.0102 224.492 34.1684 226.369 34.1684H229.216V39.3395Z" fill="url(#paint0_linear)"/>
<path d="M68.2518 62.7908C68.7968 62.4901 69.2813 62.1294 69.5841 61.6483C69.8869 61.1673 70.0685 60.6262 70.0685 59.9647C70.0685 58.8824 69.6446 58.0406 68.7968 57.4393C67.949 56.838 66.7378 56.5374 65.1633 56.5374H58.6836V69.5252H65.4056C67.0406 69.5252 68.3729 69.1644 69.2813 68.503C70.1896 67.8416 70.6136 66.9397 70.6136 65.7972C70.6136 65.0156 70.4319 64.4143 70.008 63.8731C69.5841 63.4522 68.9785 63.0313 68.2518 62.7908ZM62.3171 59.2432H64.6789C65.7083 59.2432 66.2534 59.6641 66.2534 60.5059C66.2534 61.3477 65.7083 61.7686 64.6789 61.7686H62.3171V59.2432ZM65.2239 66.9397H62.3171V64.2339H65.2239C66.3139 64.2339 66.8589 64.6548 66.8589 65.5567C66.8589 66.5188 66.3139 66.9397 65.2239 66.9397ZM82.7858 57.1988C81.6957 56.5975 80.424 56.2969 79.0311 56.2969C77.6383 56.2969 76.4271 56.5975 75.2765 57.1988C74.1865 57.8001 73.2781 58.5818 72.6725 59.604C72.067 60.6262 71.7036 61.7686 71.7036 63.0914C71.7036 64.3541 72.0064 65.5567 72.6725 66.5789C73.2781 67.6011 74.1865 68.3828 75.2765 68.9841C76.3666 69.5853 77.6383 69.886 79.0311 69.886C80.424 69.886 81.6351 69.5853 82.7858 68.9841C83.9364 68.3828 84.7842 67.6011 85.3897 66.5789C85.9953 65.5567 86.3587 64.4143 86.3587 63.0914C86.3587 61.8287 86.0559 60.6262 85.3897 59.604C84.7236 58.5818 83.8758 57.8001 82.7858 57.1988ZM82.1196 65.0156C81.8168 65.5567 81.3929 66.0377 80.8479 66.3384C80.3029 66.639 79.6973 66.8194 79.0311 66.8194C78.365 66.8194 77.7594 66.639 77.2144 66.3384C76.6694 66.0377 76.2455 65.6168 75.9427 65.0156C75.6399 64.4744 75.4582 63.813 75.4582 63.0914C75.4582 62.3699 75.6399 61.7085 75.9427 61.1673C76.2455 60.6262 76.6694 60.1451 77.2144 59.8445C77.7594 59.5438 78.365 59.3634 79.0311 59.3634C79.6973 59.3634 80.3029 59.5438 80.8479 59.8445C81.3929 60.1451 81.8168 60.566 82.1196 61.1673C82.4224 61.7085 82.6041 62.3699 82.6041 63.0914C82.6041 63.813 82.4224 64.4744 82.1196 65.0156ZM100.227 56.5975H89.6894L89.5683 60.6262C89.5077 62.6104 89.326 64.0535 88.9627 65.1358C88.6599 66.158 88.1149 66.6992 87.3276 66.6992H86.8432V72.231H90.2344V69.5853H98.5914V72.231H101.983V66.6992H100.227V56.5975ZM96.593 66.6992H91.6272C91.9906 66.158 92.2328 65.4365 92.4145 64.4744C92.5962 63.5123 92.7173 62.3098 92.7779 60.9268L92.8384 59.5438H96.593V66.6992ZM112.035 56.5975H108.402L102.588 69.5853H106.343L107.372 67.0599H112.883L113.913 69.5853H117.788L112.035 56.5975ZM108.523 64.3541L110.219 60.2052L111.914 64.3541H108.523Z" fill="url(#paint1_linear)"/>
<path d="M121.785 69.5856H123.602V56.5978H121.785V69.5856ZM146.372 61.0473H146.856V56.5978H148.794V56.1769H144.494V56.5978H146.432V61.0473H146.372ZM136.319 61.0473C136.804 61.0473 137.228 60.9271 137.591 60.7467C137.954 60.5062 138.257 60.2657 138.499 59.8448C138.741 59.484 138.802 59.0631 138.802 58.5821C138.802 58.101 138.681 57.6801 138.499 57.3193C138.257 56.9586 138.015 56.6579 137.591 56.4174C137.228 56.1769 136.804 56.1168 136.319 56.1168C135.835 56.1168 135.411 56.237 135.047 56.4174C134.684 56.6579 134.381 56.8984 134.139 57.3193C133.897 57.6801 133.836 58.101 133.836 58.5821C133.836 59.0631 133.957 59.484 134.139 59.8448C134.381 60.2055 134.623 60.5062 135.047 60.7467C135.471 60.9872 135.895 61.0473 136.319 61.0473ZM134.623 59.6644C134.442 59.3637 134.381 59.003 134.381 58.5821C134.381 58.1611 134.442 57.8004 134.623 57.4997C134.805 57.1991 135.047 56.9586 135.35 56.7782C135.653 56.5978 135.956 56.5377 136.38 56.5377C136.743 56.5377 137.106 56.5978 137.409 56.7782C137.712 56.9586 137.954 57.1991 138.136 57.4997C138.318 57.8004 138.378 58.1611 138.378 58.5821C138.378 59.003 138.318 59.3637 138.136 59.6644C137.954 59.965 137.712 60.2055 137.409 60.3859C137.106 60.5663 136.804 60.6264 136.38 60.6264C136.016 60.6264 135.653 60.5663 135.35 60.3859C135.047 60.2055 134.805 59.965 134.623 59.6644ZM169.142 62.7911H168.778C168.778 63.1518 168.899 63.4525 169.142 63.6329C169.384 63.8133 169.687 63.9335 170.111 63.9335C170.535 63.9335 170.837 63.8133 171.08 63.6329C171.322 63.4525 171.443 63.1518 171.443 62.7911H171.08C171.08 63.0316 170.958 63.2721 170.777 63.3924C170.595 63.5126 170.353 63.6329 170.111 63.6329C169.868 63.6329 169.566 63.5727 169.384 63.3924C169.263 63.212 169.142 63.0316 169.142 62.7911ZM132.201 56.1769H128.749L128.689 57.8004C128.628 58.7023 128.568 59.3637 128.447 59.9049C128.325 60.3859 128.083 60.6866 127.78 60.6866H127.478V62.31H127.902V61.1075H132.565V62.31H132.988V60.6866H132.201V56.1769ZM131.717 60.6264H128.386C128.628 60.446 128.81 60.1454 128.87 59.6644C128.992 59.1833 129.052 58.5821 129.052 57.8004L129.113 56.5978H131.656V60.6264H131.717ZM141.043 60.7467C141.406 60.9872 141.83 61.0473 142.314 61.0473C142.738 61.0473 143.041 60.9872 143.404 60.8068C143.707 60.6264 144.01 60.446 144.192 60.1454L143.828 59.9049C143.647 60.1454 143.465 60.3258 143.162 60.446C142.92 60.5663 142.617 60.6264 142.314 60.6264C141.951 60.6264 141.588 60.5663 141.285 60.3859C140.982 60.2055 140.74 59.965 140.558 59.6644C140.377 59.3637 140.316 59.003 140.316 58.5821C140.316 58.1611 140.377 57.8004 140.558 57.4997C140.74 57.1991 140.982 56.9586 141.285 56.7782C141.588 56.5978 141.951 56.5377 142.314 56.5377C142.617 56.5377 142.92 56.5978 143.162 56.7181C143.404 56.8383 143.647 57.0187 143.828 57.2592L144.192 57.0187C144.01 56.7181 143.707 56.4775 143.404 56.3573C143.102 56.1769 142.738 56.1168 142.314 56.1168C141.83 56.1168 141.406 56.237 141.043 56.4174C140.679 56.5978 140.377 56.8984 140.134 57.3193C139.892 57.6801 139.832 58.101 139.832 58.5821C139.832 59.0631 139.953 59.484 140.134 59.8448C140.377 60.2657 140.679 60.5663 141.043 60.7467ZM147.341 66.4589H145.827V64.7152H145.342V69.5856H147.22C147.886 69.5856 148.37 69.4654 148.673 69.1647C148.976 68.8641 149.157 68.5033 149.157 67.9621C149.157 67.4811 148.976 67.0602 148.673 66.8197C148.37 66.5792 148.007 66.4589 147.341 66.4589ZM148.37 68.9242C148.128 69.1046 147.765 69.2249 147.22 69.2249H145.827V66.8197H147.22C147.704 66.8197 148.128 66.94 148.37 67.1203C148.612 67.3007 148.734 67.6014 148.734 68.0223C148.734 68.3831 148.612 68.6837 148.37 68.9242ZM135.169 68.804V64.6551H134.684V69.5255H135.108L138.62 65.3766V69.5255H139.105V64.6551H138.681L135.169 68.804ZM128.386 69.5255H128.87V65.076H132.201V69.5255H132.686V64.6551H128.386V69.5255ZM140.074 65.076H142.012V69.5255H142.496V65.076H144.434V64.6551H140.134V65.076H140.074ZM164.479 61.0473H165.024L162.904 58.5219L164.903 56.1769H164.358L162.48 58.4017H161.269V56.1769H160.845V61.0473H161.33V58.7624H162.541L164.479 61.0473ZM185.674 64.9557C185.311 64.7152 184.887 64.6551 184.402 64.6551C183.918 64.6551 183.494 64.7753 183.131 64.9557C182.767 65.1962 182.464 65.4367 182.222 65.8576C181.98 66.2184 181.919 66.6393 181.919 67.1203C181.919 67.6014 182.041 68.0223 182.222 68.3831C182.464 68.7438 182.707 69.0445 183.131 69.285C183.494 69.5255 183.918 69.5856 184.402 69.5856C184.887 69.5856 185.311 69.4654 185.674 69.285C186.037 69.0445 186.34 68.804 186.582 68.3831C186.825 68.0223 186.885 67.6014 186.885 67.1203C186.885 66.6393 186.764 66.2184 186.582 65.8576C186.401 65.4969 186.037 65.1361 185.674 64.9557ZM186.098 68.2027C185.916 68.5033 185.674 68.7438 185.371 68.9242C185.068 69.1046 184.766 69.1647 184.342 69.1647C183.978 69.1647 183.615 69.1046 183.312 68.9242C183.009 68.7438 182.767 68.5033 182.586 68.2027C182.404 67.902 182.343 67.5413 182.343 67.1203C182.343 66.6994 182.404 66.3387 182.586 66.038C182.767 65.7374 183.009 65.4969 183.312 65.3165C183.615 65.1361 183.918 65.076 184.342 65.076C184.705 65.076 185.068 65.1361 185.371 65.3165C185.674 65.4969 185.916 65.7374 186.098 66.038C186.28 66.3387 186.34 66.6994 186.34 67.1203C186.401 67.4811 186.28 67.8419 186.098 68.2027ZM179.679 67.0602C179.982 67.0001 180.163 66.8197 180.345 66.6393C180.527 66.4589 180.587 66.2184 180.587 65.9178C180.587 65.4969 180.405 65.1962 180.103 65.0158C179.8 64.8355 179.376 64.7152 178.831 64.7152H176.772V69.5856H178.892C179.497 69.5856 179.982 69.4654 180.284 69.2249C180.587 68.9843 180.769 68.6837 180.769 68.2628C180.769 67.5412 180.405 67.1805 179.679 67.0602ZM177.256 65.076H178.831C179.255 65.076 179.558 65.1361 179.8 65.3165C180.042 65.4969 180.163 65.6773 180.163 65.9779C180.163 66.2785 180.042 66.5191 179.8 66.6393C179.558 66.8197 179.255 66.8798 178.831 66.8798H177.256V65.076ZM178.892 69.1647H177.256V67.2406H179.013C179.497 67.2406 179.8 67.3007 180.042 67.4811C180.284 67.6615 180.345 67.902 180.345 68.2027C180.284 68.8641 179.86 69.1647 178.892 69.1647ZM168.415 68.804V64.6551H167.931V69.5255H168.354L171.867 65.3766V69.5255H172.351V64.6551H171.927L168.415 68.804ZM192.214 64.6551H188.763L188.702 66.2785C188.641 67.1805 188.581 67.8419 188.46 68.3831C188.339 68.8641 188.096 69.1647 187.794 69.1647H187.491V70.7882H187.915V69.5856H192.578V70.7882H193.002V69.1647H192.214V64.6551ZM191.73 69.1647H188.399C188.641 68.9843 188.823 68.6837 188.884 68.2027C189.005 67.7216 189.065 67.1203 189.065 66.3387L189.126 65.1361H191.669V69.1647H191.73ZM196.332 66.4589H194.879V64.7152H194.394V69.5856H196.211C196.877 69.5856 197.362 69.4654 197.665 69.1647C197.967 68.8641 198.149 68.5033 198.149 67.9621C198.149 67.4811 197.967 67.0602 197.665 66.8197C197.422 66.5792 196.938 66.4589 196.332 66.4589ZM197.362 68.9242C197.12 69.1046 196.696 69.2249 196.211 69.2249H194.879V66.8197H196.211C196.696 66.8197 197.12 66.94 197.362 67.1203C197.604 67.3007 197.725 67.6014 197.725 68.0223C197.725 68.3831 197.604 68.6837 197.362 68.9242ZM199.118 64.6551V69.5255H199.602V64.6551H199.118ZM169.142 60.1454V60.9872H169.566V57.9206C169.566 57.3193 169.384 56.8984 169.081 56.5377C168.778 56.237 168.294 56.0566 167.688 56.0566C167.325 56.0566 166.962 56.1168 166.598 56.237C166.235 56.3573 165.932 56.5377 165.69 56.7181L165.932 57.0788C166.114 56.8984 166.417 56.7181 166.719 56.6579C167.022 56.5377 167.325 56.4775 167.628 56.4775C168.112 56.4775 168.476 56.5978 168.718 56.8383C168.96 57.0788 169.081 57.4396 169.081 57.8605V58.2814H167.385C166.719 58.2814 166.295 58.4017 165.993 58.6422C165.69 58.8827 165.569 59.2435 165.569 59.6042C165.569 60.0251 165.75 60.3859 166.053 60.6264C166.356 60.8669 166.78 60.9872 167.325 60.9872C167.749 60.9872 168.112 60.9271 168.415 60.7467C168.778 60.6866 169.021 60.446 169.142 60.1454ZM166.477 60.3859C166.235 60.2055 166.114 59.965 166.114 59.6042C166.114 59.3036 166.235 59.0631 166.417 58.8827C166.598 58.7023 166.962 58.6422 167.446 58.6422H169.142V59.5441C169.021 59.9049 168.778 60.1454 168.476 60.3859C168.173 60.5663 167.87 60.6866 167.446 60.6866C167.022 60.6866 166.659 60.5663 166.477 60.3859ZM158.726 60.6866C159.028 60.446 159.21 60.1454 159.21 59.7245C159.21 59.0631 158.847 58.6422 158.12 58.5219C158.423 58.4618 158.605 58.2814 158.786 58.101C158.968 57.9206 159.028 57.6801 159.028 57.3795C159.028 56.9586 158.847 56.6579 158.544 56.4775C158.241 56.2972 157.817 56.1769 157.272 56.1769H155.213V61.0473H157.333C157.938 61.0473 158.362 60.9271 158.726 60.6866ZM155.637 56.5377H157.212C157.636 56.5377 157.938 56.5978 158.181 56.7782C158.423 56.9586 158.544 57.139 158.544 57.4396C158.544 57.7402 158.423 57.9808 158.181 58.101C157.938 58.2814 157.636 58.3415 157.212 58.3415H155.637V56.5377ZM155.637 60.6264V58.7023H157.393C157.878 58.7023 158.181 58.7624 158.423 58.9428C158.665 59.1232 158.726 59.3637 158.726 59.6644C158.726 60.2657 158.241 60.6264 157.333 60.6264H155.637ZM153.639 64.9557C153.275 64.7753 152.912 64.6551 152.428 64.6551C151.943 64.6551 151.58 64.7753 151.216 64.9557C150.853 65.1962 150.55 65.4367 150.369 65.8576C150.187 66.2184 150.066 66.6393 150.066 67.1203C150.066 67.6014 150.187 68.0223 150.369 68.3831C150.611 68.7438 150.914 69.0445 151.277 69.285C151.64 69.5255 152.125 69.5856 152.609 69.5856C152.973 69.5856 153.336 69.5255 153.639 69.4052C153.942 69.285 154.244 69.0445 154.426 68.804L154.123 68.5033C153.942 68.7438 153.699 68.9242 153.457 68.9843C153.154 69.1046 152.912 69.1647 152.549 69.1647C152.185 69.1647 151.822 69.1046 151.519 68.9242C151.216 68.7438 150.974 68.5634 150.793 68.2628C150.611 67.9621 150.49 67.6014 150.49 67.2406H154.729V67.1203C154.729 66.6393 154.608 66.2184 154.426 65.8576C154.305 65.4367 154.002 65.1361 153.639 64.9557ZM150.55 66.8798C150.55 66.5191 150.671 66.2184 150.853 65.9178C151.035 65.6171 151.216 65.4367 151.519 65.2564C151.822 65.076 152.125 65.0158 152.428 65.0158C152.73 65.0158 153.094 65.076 153.336 65.2564C153.639 65.4367 153.82 65.6171 154.002 65.9178C154.184 66.2184 154.244 66.5191 154.305 66.8798H150.55ZM159.271 67.0602C159.573 67.0001 159.755 66.8197 159.937 66.6393C160.118 66.4589 160.179 66.2184 160.179 65.9178C160.179 65.4969 159.997 65.1962 159.695 65.0158C159.392 64.8355 158.968 64.7152 158.423 64.7152H156.364V69.5856H158.483C159.089 69.5856 159.573 69.4654 159.876 69.2249C160.179 68.9843 160.361 68.6837 160.361 68.2628C160.3 67.5412 159.937 67.1805 159.271 67.0602ZM156.788 65.076H158.362C158.786 65.076 159.089 65.1361 159.331 65.3165C159.573 65.4969 159.695 65.6773 159.695 65.9779C159.695 66.2785 159.573 66.5191 159.331 66.6393C159.089 66.8197 158.786 66.8798 158.362 66.8798H156.788V65.076ZM158.423 69.1647H156.788V67.2406H158.544C159.028 67.2406 159.331 67.3007 159.573 67.4811C159.816 67.6615 159.876 67.902 159.876 68.2027C159.876 68.8641 159.392 69.1647 158.423 69.1647ZM165.205 64.9557C164.842 64.7152 164.418 64.6551 163.934 64.6551C163.449 64.6551 163.025 64.7753 162.662 64.9557C162.299 65.1962 161.996 65.4367 161.754 65.8576C161.511 66.2184 161.451 66.6393 161.451 67.1203C161.451 67.6014 161.572 68.0223 161.754 68.3831C161.996 68.7438 162.238 69.0445 162.662 69.285C163.025 69.5255 163.449 69.5856 163.934 69.5856C164.418 69.5856 164.842 69.4654 165.205 69.285C165.569 69.0445 165.872 68.804 166.114 68.3831C166.356 68.0223 166.417 67.6014 166.417 67.1203C166.417 66.6393 166.295 66.2184 166.114 65.8576C165.932 65.4969 165.569 65.1361 165.205 64.9557ZM165.69 68.2027C165.508 68.5033 165.266 68.7438 164.963 68.9242C164.66 69.1046 164.358 69.1647 163.934 69.1647C163.57 69.1647 163.207 69.1046 162.904 68.9242C162.601 68.7438 162.359 68.5033 162.177 68.2027C161.996 67.902 161.935 67.5413 161.935 67.1203C161.935 66.6994 161.996 66.3387 162.177 66.038C162.359 65.7374 162.601 65.4969 162.904 65.3165C163.207 65.1361 163.51 65.076 163.934 65.076C164.297 65.076 164.66 65.1361 164.963 65.3165C165.266 65.4969 165.508 65.7374 165.69 66.038C165.872 66.3387 165.932 66.6994 165.932 67.1203C165.932 67.4811 165.872 67.8419 165.69 68.2027ZM152.125 60.8068C152.428 60.6264 152.67 60.446 152.791 60.1454V60.9872H153.215V57.9206C153.215 57.3193 153.033 56.8984 152.73 56.5377C152.428 56.237 151.943 56.0566 151.338 56.0566C150.974 56.0566 150.611 56.1168 150.248 56.237C149.884 56.3573 149.581 56.5377 149.339 56.7181L149.581 57.0788C149.763 56.8984 150.066 56.7181 150.369 56.6579C150.671 56.5978 150.974 56.4775 151.277 56.4775C151.761 56.4775 152.125 56.5978 152.367 56.8383C152.609 57.0788 152.73 57.4396 152.73 57.8605V58.2814H151.035C150.369 58.2814 149.945 58.4017 149.642 58.6422C149.339 58.8827 149.218 59.2435 149.218 59.6042C149.218 60.0251 149.4 60.3859 149.702 60.6264C150.005 60.8669 150.429 60.9872 150.974 60.9872C151.459 61.0473 151.822 60.9872 152.125 60.8068ZM149.763 59.6644C149.763 59.3637 149.884 59.1232 150.066 58.9428C150.248 58.7624 150.611 58.7023 151.095 58.7023H152.791V59.6042C152.67 59.965 152.428 60.2055 152.125 60.446C151.822 60.6264 151.519 60.7467 151.095 60.7467C150.671 60.7467 150.308 60.6264 150.066 60.446C149.824 60.2657 149.763 59.965 149.763 59.6644Z" fill="#B5B5B5"/>
<path d="M27.5567 43.3693C36.2771 43.4896 43.3018 42.287 45.7847 40.4831C48.2676 38.6793 46.1481 37.7773 45.1791 36.3944C44.3313 35.1918 43.7257 32.8468 45.1791 31.5239C41.7273 32.7866 39.2444 33.7487 39.5472 36.8153C39.85 39.8818 30.3424 40.1825 19.5025 40.3629C8.54143 40.4831 3.21231 46.977 4.12069 52.0279C4.42348 47.879 10.9638 43.1288 27.5567 43.3693ZM27.5567 69.345C36.2771 69.4652 43.3018 68.2627 45.7847 66.4588C48.2676 64.6549 46.572 62.3099 45.1791 56.8382C43.1202 48.841 43.7257 43.7301 45.1791 42.4073C41.7273 43.67 38.8205 45.6542 42.0301 61.5282C42.6357 64.5347 30.3424 66.1581 19.4419 66.2784C8.54143 66.4588 3.21231 72.9527 4.06013 78.0035C4.42348 73.8546 10.9638 69.1045 27.5567 69.345ZM4.30236 40.3027C7.26971 34.4702 18.2913 33.5082 27.5567 32.967C27.5567 32.967 46.9353 32.6664 46.9353 29.4194C46.9353 27.7959 44.2708 25.6313 40.5767 23.7072C40.5767 23.7072 33.4309 19.7387 30.7663 17.8146C28.1017 15.8904 28.889 11.8618 28.889 10.539C28.889 9.21613 27.3145 9.21613 27.1934 10.2985C27.1934 11.4409 27.4961 11.7415 26.6483 12.5833C25.8005 13.4252 23.9838 12.403 21.077 15.0486C21.077 15.0486 25.0133 13.9062 25.0133 15.71C25.0133 17.5139 23.4993 19.1975 16.6562 21.302C11.5088 22.685 6.05855 24.9699 4.42348 28.277C7.33027 24.6091 20.9559 23.2863 26.9511 23.6471C32.8858 23.9477 37.0038 26.2927 37.0038 27.3149C37.0038 28.3371 4.30236 29.3593 4.30236 40.3027ZM46.3297 76.6807C45.5425 75.899 42.6357 72.2312 45.9058 69.2849C36.5193 71.9907 37.6094 75.8389 39.5472 78.7852C41.4851 81.7315 16.2929 86.602 6.17966 82.8138C14.1733 87.5039 35.0054 86.2412 42.0301 84.0765C49.0549 81.9119 47.117 77.4624 46.3297 76.6807ZM24.8316 8.07368C27.2539 8.07368 29.6762 8.37433 29.434 9.93768C30.0396 7.59265 29.7974 2.60196 28.9495 2.30131C28.1017 2.0608 21.622 1.88041 20.4108 2.30131C19.1997 2.72222 19.8053 7.65278 20.4108 9.93768C20.2897 8.25407 22.5304 8.07368 24.8316 8.07368Z" fill="url(#paint2_linear)"/>
</g>
<defs>
<filter id="filter0_d" x="0" y="0" width="238" height="92" filterUnits="userSpaceOnUse" color-interpolation-filters="sRGB">
<feFlood flood-opacity="0" result="BackgroundImageFix"/>
<feColorMatrix in="SourceAlpha" type="matrix" values="0 0 0 0 0 0 0 0 0 0 0 0 0 0 0 0 0 0 127 0"/>
<feOffset dy="2"/>
<feGaussianBlur stdDeviation="2"/>
<feColorMatrix type="matrix" values="0 0 0 0 0 0 0 0 0 0 0 0 0 0 0 0 0 0 0.25 0"/>
<feBlend mode="normal" in2="BackgroundImageFix" result="effect1_dropShadow"/>
<feBlend mode="normal" in="SourceGraphic" in2="effect1_dropShadow" result="shape"/>
</filter>
<linearGradient id="paint0_linear" x1="146.009" y1="31.871" x2="146.009" y2="44.0044" gradientUnits="userSpaceOnUse">
<stop stop-color="white"/>
<stop offset="0.145833" stop-color="#CACACA"/>
<stop offset="0.526042" stop-color="white"/>
<stop offset="1" stop-color="#AEAEAE"/>
</linearGradient>
<linearGradient id="paint1_linear" x1="88.2462" y1="57.9657" x2="88.2462" y2="68.9023" gradientUnits="userSpaceOnUse">
<stop stop-color="white"/>
<stop offset="0.145833" stop-color="#CACACA"/>
<stop offset="0.526042" stop-color="white"/>
<stop offset="1" stop-color="#AEAEAE"/>
</linearGradient>
<linearGradient id="paint2_linear" x1="25.5846" y1="10.8431" x2="25.5846" y2="68.4746" gradientUnits="userSpaceOnUse">
<stop stop-color="white"/>
<stop offset="0.145833" stop-color="#CACACA"/>
<stop offset="0.526042" stop-color="white"/>
<stop offset="1" stop-color="#AEAEAE"/>
</linearGradient>
<clipPath id="clip0">
<rect width="230" height="84" fill="white" transform="translate(4 2)"/>
</clipPath>
</defs>
</svg>
