<?xml version="1.0" encoding="utf-8"?>
<!-- Generator: Adobe Illustrator 27.6.1, SVG Export Plug-In . SVG Version: 6.00 Build 0)  -->
<svg version="1.1" id="Layer_1" xmlns="http://www.w3.org/2000/svg" xmlns:xlink="http://www.w3.org/1999/xlink" x="0px" y="0px"
	 viewBox="0 0 238 92" style="enable-background:new 0 0 238 92;" xml:space="preserve">
<style type="text/css">
	.st0{fill:#FFFFFF;}
</style>
<path class="st0" d="M27.6,43.4c8.7,0.1,15.7-1.1,18.2-2.9c2.5-1.8,0.4-2.7-0.6-4.1c-0.8-1.2-1.5-3.5,0-4.9
	c-3.5,1.3-5.9,2.2-5.6,5.3c0.3,3.1-9.2,3.4-20,3.5C8.5,40.5,3.2,47,4.1,52C4.4,47.9,11,43.1,27.6,43.4z M27.6,69.3
	c8.7,0.1,15.7-1.1,18.2-2.9c2.5-1.8,0.8-4.1-0.6-9.6c-2.1-8-1.5-13.1,0-14.4c-3.5,1.3-6.4,3.2-3.1,19.1c0.6,3-11.7,4.6-22.6,4.8
	C8.5,66.5,3.2,73,4.1,78C4.4,73.9,11,69.1,27.6,69.3z M4.3,40.3c3-5.8,14-6.8,23.3-7.3c0,0,19.4-0.3,19.4-3.5c0-1.6-2.7-3.8-6.4-5.7
	c0,0-7.1-4-9.8-5.9c-2.7-1.9-1.9-6-1.9-7.3c0-1.3-1.6-1.3-1.7-0.2c0,1.1,0.3,1.4-0.5,2.3c-0.8,0.8-2.7-0.2-5.6,2.5
	c0,0,3.9-1.1,3.9,0.7c0,1.8-1.5,3.5-8.4,5.6c-5.1,1.4-10.6,3.7-12.2,7c2.9-3.7,16.5-5,22.5-4.6c5.9,0.3,10.1,2.6,10.1,3.7
	S4.3,29.4,4.3,40.3z M46.3,76.7c-0.8-0.8-3.7-4.4-0.4-7.4c-9.4,2.7-8.3,6.6-6.4,9.5c1.9,2.9-23.3,7.8-33.4,4
	c8,4.7,28.8,3.4,35.9,1.3C49.1,81.9,47.1,77.5,46.3,76.7z M24.8,8.1c2.4,0,4.8,0.3,4.6,1.9c0.6-2.3,0.4-7.3-0.5-7.6
	c-0.8-0.2-7.3-0.4-8.5,0c-1.2,0.4-0.6,5.4,0,7.6C20.3,8.3,22.5,8.1,24.8,8.1z"/>
<g>
	<path class="st0" d="M78.3,25.8c-1.8-0.9-3.9-1.4-6.2-1.4s-4.4,0.5-6.2,1.4c-1.8,0.9-3.2,2.3-4.2,4.1s-1.5,4-1.5,6.6v13.5h7v-5.5
		h9.7v5.5H84V36.4c0-2.6-0.5-4.8-1.5-6.6C81.5,28.1,80.1,26.7,78.3,25.8z M67.2,38.9v-3.1c0-1.9,0.5-3.3,1.4-4.2
		c0.9-0.9,2.1-1.3,3.5-1.3c1.4,0,2.6,0.4,3.5,1.3c0.9,0.9,1.4,2.3,1.4,4.2v3.1H67.2z"/>
	<polygon class="st0" points="112.6,24.9 105.2,24.9 99.3,34.6 95.8,34.6 95.8,24.9 88.8,24.9 88.8,49.9 95.8,49.9 95.8,40.3 
		99.1,40.3 104.7,49.9 112.7,49.9 104.8,37 	"/>
	<path class="st0" d="M135.4,37.9c-0.6-0.4-1.4-0.8-2.2-1.1c0.4-0.2,0.8-0.4,1.1-0.7c1.5-1.2,2.3-2.7,2.3-4.8c0-2.1-0.8-3.7-2.5-4.8
		c-1.7-1.1-4-1.7-7-1.7H115v25h12.8c3.2,0,5.7-0.6,7.4-1.9c1.7-1.3,2.6-3,2.6-5.2C137.7,40.6,136.9,39,135.4,37.9z M121.9,30h4.5
		c1,0,1.8,0.2,2.2,0.6c0.5,0.4,0.7,1,0.7,1.8c0,0.8-0.2,1.4-0.7,1.8c-0.5,0.4-1.2,0.6-2.2,0.6h-4.5V30z M129.8,44.2
		c-0.5,0.4-1.3,0.7-2.3,0.7h-5.6v-5.1h5.6c1,0,1.8,0.2,2.3,0.6c0.5,0.4,0.8,1.1,0.8,1.9S130.3,43.7,129.8,44.2z"/>
	<path class="st0" d="M159.3,25.8c-1.8-0.9-3.9-1.4-6.2-1.4c-2.4,0-4.4,0.5-6.2,1.4c-1.8,0.9-3.2,2.3-4.2,4.1s-1.5,4-1.5,6.6v13.5h7
		v-5.5h9.7v5.5h7.1V36.4c0-2.6-0.5-4.8-1.5-6.6S161,26.7,159.3,25.8z M148.1,38.9v-3.1c0-1.9,0.5-3.3,1.4-4.2
		c0.9-0.9,2.1-1.3,3.5-1.3c1.4,0,2.6,0.4,3.5,1.3c0.9,0.9,1.4,2.3,1.4,4.2v3.1H148.1z"/>
	<path class="st0" d="M172.3,42.2c-1.1,0-2.1,0.4-2.9,1.1c-0.8,0.7-1.2,1.7-1.2,2.9c0,1.2,0.4,2.1,1.2,2.9c0.8,0.8,1.8,1.1,2.9,1.1
		s2.1-0.4,2.9-1.1c0.8-0.8,1.2-1.7,1.2-2.9c0-1.2-0.4-2.2-1.2-2.9C174.4,42.6,173.4,42.2,172.3,42.2z"/>
	<path class="st0" d="M197.3,26c-1.7-0.7-3.6-1.1-5.9-1.1H180v25h7.1v-6.5h4.4c2.3,0,4.3-0.4,5.9-1.1c1.7-0.7,2.9-1.8,3.8-3.2
		c0.9-1.4,1.4-3,1.4-4.9c0-1.9-0.5-3.6-1.4-4.9C200.3,27.8,199,26.8,197.3,26z M194.3,36.8c-0.7,0.6-1.8,1-3.3,1h-3.9v-7.3h3.9
		c1.5,0,2.6,0.3,3.3,1c0.7,0.6,1.1,1.5,1.1,2.7C195.4,35.3,195,36.2,194.3,36.8z"/>
	<path class="st0" d="M235.8,32.3c-0.7-1.6-1.8-2.9-3.2-4.1c-1.4-1.2-3.1-2.1-5.1-2.7c-2-0.7-4.3-1-6.9-1c-2.5,0-4.8,0.3-6.8,1
		c-2,0.7-3.7,1.6-5.1,2.7c-1.4,1.2-2.5,2.5-3.2,4.1s-1.1,3.3-1.1,5.1s0.4,3.6,1.1,5.1s1.8,2.9,3.2,4.1c1.4,1.2,3.1,2.1,5.1,2.7
		c2,0.7,4.3,1,6.8,1c2.6,0,4.9-0.3,6.9-1c2-0.7,3.7-1.6,5.1-2.7c1.4-1.2,2.5-2.5,3.2-4.1c0.7-1.6,1.1-3.3,1.1-5.1
		S236.6,33.8,235.8,32.3z M213.6,42.8c-0.8-0.7-1.4-1.5-1.7-2.4c-0.4-0.9-0.6-1.9-0.6-3c0-1.1,0.2-2.1,0.6-3c0.4-0.9,1-1.7,1.7-2.3
		c0.8-0.7,1.8-1.2,2.9-1.5c0.3-0.1,0.6-0.2,0.9-0.2v14.2c-0.3-0.1-0.6-0.1-0.9-0.2C215.3,43.9,214.3,43.4,213.6,42.8z M229.6,40.4
		c-0.4,0.9-1,1.7-1.7,2.4s-1.8,1.2-2.9,1.5c-0.3,0.1-0.6,0.2-0.9,0.2V30.3c0.3,0.1,0.6,0.1,0.9,0.2c1.2,0.3,2.2,0.8,2.9,1.5
		c0.8,0.7,1.4,1.4,1.7,2.3c0.4,0.9,0.6,1.9,0.6,3C230.1,38.5,230,39.5,229.6,40.4z"/>
</g>
<g>
	<path class="st0" d="M68.3,59h-6.1l-0.1,2.4c0,0.5-0.1,1-0.1,1.4c0,0.4-0.1,0.8-0.2,1.1s-0.2,0.6-0.4,0.7C61.2,64.9,61,65,60.7,65
		h-0.2v3.2h2v-1.5h4.9v1.5h2V65h-1V59z M63.4,64.7c0.1-0.2,0.2-0.5,0.3-0.8c0.1-0.3,0.1-0.7,0.2-1.1c0-0.4,0.1-0.8,0.1-1.2l0-0.8
		h2.2V65h-2.9C63.3,64.9,63.4,64.8,63.4,64.7z"/>
	<path class="st0" d="M77.1,60c-0.4-0.4-0.8-0.6-1.3-0.8c-0.5-0.2-1.1-0.3-1.7-0.3c-0.6,0-1.2,0.1-1.7,0.3c-0.5,0.2-1,0.5-1.3,0.8
		c-0.4,0.4-0.7,0.8-0.9,1.3c-0.2,0.5-0.3,1-0.3,1.6s0.1,1.1,0.3,1.6c0.2,0.5,0.5,0.9,0.9,1.3c0.4,0.4,0.8,0.6,1.3,0.8
		c0.5,0.2,1.1,0.3,1.7,0.3c0.6,0,1.2-0.1,1.7-0.3s1-0.5,1.3-0.8c0.4-0.4,0.7-0.8,0.9-1.3c0.2-0.5,0.3-1,0.3-1.6s-0.1-1.1-0.3-1.6
		C77.8,60.8,77.5,60.4,77.1,60z M76,63.7c-0.1,0.3-0.3,0.5-0.4,0.7s-0.4,0.3-0.7,0.4S74.4,65,74.1,65c-0.3,0-0.6-0.1-0.8-0.2
		c-0.3-0.1-0.5-0.2-0.7-0.4s-0.3-0.4-0.4-0.7c-0.1-0.3-0.2-0.6-0.2-0.9c0-0.3,0.1-0.6,0.2-0.9c0.1-0.3,0.3-0.5,0.4-0.7
		s0.4-0.3,0.7-0.4c0.2-0.1,0.5-0.2,0.8-0.2c0.3,0,0.6,0.1,0.8,0.2s0.5,0.2,0.7,0.4s0.3,0.4,0.4,0.7c0.1,0.3,0.2,0.6,0.2,0.9
		C76.2,63.2,76.1,63.5,76,63.7z"/>
	<path class="st0" d="M81.8,61.3c0.2-0.2,0.4-0.3,0.7-0.4c0.3-0.1,0.5-0.2,0.9-0.2c0.4,0,0.7,0.1,1,0.2s0.6,0.4,0.8,0.7l1.4-1.2
		c-0.4-0.5-0.8-0.8-1.4-1.1c-0.6-0.2-1.2-0.4-1.9-0.4c-0.6,0-1.2,0.1-1.7,0.3s-1,0.5-1.3,0.8c-0.4,0.4-0.7,0.8-0.9,1.3
		c-0.2,0.5-0.3,1-0.3,1.6s0.1,1.1,0.3,1.6c0.2,0.5,0.5,0.9,0.9,1.3c0.4,0.4,0.8,0.6,1.3,0.8c0.5,0.2,1.1,0.3,1.7,0.3
		c0.7,0,1.3-0.1,1.9-0.4c0.6-0.2,1-0.6,1.4-1.1l-1.4-1.2c-0.2,0.3-0.5,0.5-0.8,0.7C84,65,83.7,65,83.3,65c-0.3,0-0.6-0.1-0.9-0.2
		c-0.3-0.1-0.5-0.2-0.7-0.4s-0.3-0.4-0.4-0.7c-0.1-0.3-0.2-0.6-0.2-0.9c0-0.3,0.1-0.6,0.2-0.9C81.5,61.7,81.6,61.5,81.8,61.3z"/>
	<polygon class="st0" points="93.5,60.8 93.5,59 86.7,59 86.7,60.8 89.1,60.8 89.1,66.7 91.2,66.7 91.2,60.8 	"/>
	<path class="st0" d="M96.7,59l-3.4,7.6h2.2l0.6-1.5h3.2l0.6,1.5h2.2L98.9,59H96.7z M96.8,63.6l1-2.4l1,2.4H96.8z"/>
	<path class="st0" d="M109.3,63c-0.2-0.1-0.4-0.2-0.7-0.3c0.1-0.1,0.2-0.1,0.3-0.2c0.5-0.4,0.7-0.8,0.7-1.5c0-0.6-0.3-1.1-0.8-1.5
		c-0.5-0.3-1.2-0.5-2.1-0.5h-3.7v7.6h3.9c1,0,1.7-0.2,2.2-0.6c0.5-0.4,0.8-0.9,0.8-1.6C110,63.8,109.8,63.3,109.3,63z M105.2,60.6
		h1.4c0.3,0,0.5,0.1,0.7,0.2s0.2,0.3,0.2,0.6c0,0.2-0.1,0.4-0.2,0.6s-0.4,0.2-0.7,0.2h-1.4V60.6z M107.6,64.9
		c-0.2,0.1-0.4,0.2-0.7,0.2h-1.7v-1.6h1.7c0.3,0,0.5,0.1,0.7,0.2s0.2,0.3,0.2,0.6S107.8,64.8,107.6,64.9z"/>
	<path class="st0" d="M121.6,59l-3.3,7.4l-2.3-3.7l2.4-3.7h-2.3l-1.8,3h-1v-3h-2.1v7.6h2.1v-2.9h1l1.7,2.9h2.2h0.3h1.9l0.6-1.5h3.2
		l0.6,1.5h2.2l-3.4-7.6H121.6z M121.6,63.6l1-2.4l1,2.4H121.6z"/>
	<polygon class="st0" points="131.1,66.7 133.2,66.7 133.2,60.8 136.1,60.8 136.1,66.7 138.3,66.7 138.3,59 131.1,59 	"/>
	<polygon class="st0" points="142,63.5 142,59 139.9,59 139.9,66.7 141.9,66.7 145.1,62.2 145.1,66.7 147.2,66.7 147.2,59 145.2,59 
			"/>
	<polygon class="st0" points="148.2,60.8 150.5,60.8 150.5,66.7 152.6,66.7 152.6,60.8 155,60.8 155,59 148.2,59 	"/>
	<path class="st0" d="M159.8,61.5h-1.8V59h-2.1v7.6h3.6c1,0,1.8-0.2,2.4-0.7c0.6-0.5,0.9-1.1,0.9-2c0-0.8-0.3-1.4-0.8-1.9
		C161.5,61.7,160.8,61.5,159.8,61.5z M160.3,64.8c-0.2,0.2-0.5,0.3-0.9,0.3h-1.3V63h1.3c0.4,0,0.7,0.1,0.9,0.2
		c0.2,0.1,0.3,0.4,0.3,0.8C160.6,64.4,160.5,64.6,160.3,64.8z"/>
	<polygon class="st0" points="166,63.6 169.4,63.6 169.4,62 166,62 166,60.7 169.8,60.7 169.8,59 163.8,59 163.8,66.7 170,66.7 
		170,65 166,65 	"/>
	<path class="st0" d="M177.4,63c-0.2-0.1-0.4-0.2-0.7-0.3c0.1-0.1,0.2-0.1,0.3-0.2c0.5-0.4,0.7-0.8,0.7-1.5c0-0.6-0.3-1.1-0.8-1.5
		c-0.5-0.3-1.2-0.5-2.1-0.5h-3.7v7.6h3.9c1,0,1.7-0.2,2.2-0.6c0.5-0.4,0.8-0.9,0.8-1.6C178.1,63.8,177.9,63.3,177.4,63z M173.3,60.6
		h1.4c0.3,0,0.5,0.1,0.7,0.2s0.2,0.3,0.2,0.6c0,0.2-0.1,0.4-0.2,0.6s-0.4,0.2-0.7,0.2h-1.4V60.6z M175.7,64.9
		c-0.2,0.1-0.4,0.2-0.7,0.2h-1.7v-1.6h1.7c0.3,0,0.5,0.1,0.7,0.2c0.2,0.1,0.2,0.3,0.2,0.6S175.9,64.8,175.7,64.9z"/>
	<path class="st0" d="M186.1,60c-0.4-0.4-0.8-0.6-1.3-0.8c-0.5-0.2-1.1-0.3-1.7-0.3c-0.6,0-1.2,0.1-1.7,0.3c-0.5,0.2-1,0.5-1.3,0.8
		c-0.4,0.4-0.7,0.8-0.9,1.3c-0.2,0.5-0.3,1-0.3,1.6s0.1,1.1,0.3,1.6c0.2,0.5,0.5,0.9,0.9,1.3c0.4,0.4,0.8,0.6,1.3,0.8
		s1.1,0.3,1.7,0.3c0.6,0,1.2-0.1,1.7-0.3s1-0.5,1.3-0.8c0.4-0.4,0.7-0.8,0.9-1.3c0.2-0.5,0.3-1,0.3-1.6s-0.1-1.1-0.3-1.6
		C186.7,60.8,186.4,60.4,186.1,60z M184.9,63.7c-0.1,0.3-0.3,0.5-0.4,0.7c-0.2,0.2-0.4,0.3-0.7,0.4S183.3,65,183,65
		c-0.3,0-0.6-0.1-0.8-0.2c-0.3-0.1-0.5-0.2-0.7-0.4c-0.2-0.2-0.3-0.4-0.4-0.7s-0.2-0.6-0.2-0.9c0-0.3,0.1-0.6,0.2-0.9
		s0.2-0.5,0.4-0.7c0.2-0.2,0.4-0.3,0.7-0.4c0.2-0.1,0.5-0.2,0.8-0.2c0.3,0,0.6,0.1,0.8,0.2s0.5,0.2,0.7,0.4c0.2,0.2,0.3,0.4,0.4,0.7
		s0.2,0.6,0.2,0.9C185.1,63.2,185,63.5,184.9,63.7z"/>
	<path class="st0" d="M192.1,58.6c0.8,0,1.4-0.2,1.7-0.5c0.4-0.3,0.5-0.7,0.5-1.3h-1.4c0,0.3-0.1,0.4-0.2,0.6s-0.3,0.2-0.6,0.2
		c-0.3,0-0.5-0.1-0.6-0.2c-0.1-0.1-0.2-0.3-0.2-0.6h-1.4c0,0.6,0.2,1,0.5,1.3C190.7,58.4,191.3,58.6,192.1,58.6z"/>
	<polygon class="st0" points="190.6,63.5 190.6,59 188.4,59 188.4,66.7 190.5,66.7 193.6,62.2 193.6,66.7 195.7,66.7 195.7,59 
		193.7,59 	"/>
	<path class="st0" d="M206.7,63c-0.2-0.1-0.4-0.2-0.7-0.3c0.1-0.1,0.2-0.1,0.3-0.2c0.5-0.4,0.7-0.8,0.7-1.5c0-0.6-0.3-1.1-0.8-1.5
		c-0.5-0.3-1.2-0.5-2.1-0.5h-3.7v7.6h3.9c1,0,1.7-0.2,2.2-0.6c0.5-0.4,0.8-0.9,0.8-1.6C207.5,63.8,207.2,63.3,206.7,63z M202.6,60.6
		h1.4c0.3,0,0.5,0.1,0.7,0.2s0.2,0.3,0.2,0.6c0,0.2-0.1,0.4-0.2,0.6s-0.4,0.2-0.7,0.2h-1.4V60.6z M205.1,64.9
		c-0.2,0.1-0.4,0.2-0.7,0.2h-1.7v-1.6h1.7c0.3,0,0.5,0.1,0.7,0.2c0.2,0.1,0.2,0.3,0.2,0.6S205.2,64.8,205.1,64.9z"/>
	<path class="st0" d="M215.4,60c-0.4-0.4-0.8-0.6-1.3-0.8c-0.5-0.2-1.1-0.3-1.7-0.3c-0.6,0-1.2,0.1-1.7,0.3c-0.5,0.2-1,0.5-1.3,0.8
		c-0.4,0.4-0.7,0.8-0.9,1.3c-0.2,0.5-0.3,1-0.3,1.6s0.1,1.1,0.3,1.6c0.2,0.5,0.5,0.9,0.9,1.3c0.4,0.4,0.8,0.6,1.3,0.8
		s1.1,0.3,1.7,0.3c0.6,0,1.2-0.1,1.7-0.3s1-0.5,1.3-0.8c0.4-0.4,0.7-0.8,0.9-1.3c0.2-0.5,0.3-1,0.3-1.6s-0.1-1.1-0.3-1.6
		C216.1,60.8,215.8,60.4,215.4,60z M214.3,63.7c-0.1,0.3-0.3,0.5-0.4,0.7c-0.2,0.2-0.4,0.3-0.7,0.4s-0.5,0.2-0.8,0.2
		c-0.3,0-0.6-0.1-0.8-0.2c-0.3-0.1-0.5-0.2-0.7-0.4c-0.2-0.2-0.3-0.4-0.4-0.7s-0.2-0.6-0.2-0.9c0-0.3,0.1-0.6,0.2-0.9
		s0.2-0.5,0.4-0.7c0.2-0.2,0.4-0.3,0.7-0.4c0.2-0.1,0.5-0.2,0.8-0.2c0.3,0,0.6,0.1,0.8,0.2s0.5,0.2,0.7,0.4c0.2,0.2,0.3,0.4,0.4,0.7
		s0.2,0.6,0.2,0.9C214.4,63.2,214.4,63.5,214.3,63.7z"/>
	<path class="st0" d="M224.7,59h-6.1l-0.1,2.4c0,0.5-0.1,1-0.1,1.4c0,0.4-0.1,0.8-0.2,1.1s-0.2,0.6-0.4,0.7
		c-0.2,0.2-0.4,0.3-0.6,0.3h-0.2v3.2h2v-1.5h4.9v1.5h2V65h-1V59z M219.8,64.7c0.1-0.2,0.2-0.5,0.3-0.8c0.1-0.3,0.1-0.7,0.2-1.1
		c0-0.4,0.1-0.8,0.1-1.2l0-0.8h2.2V65h-2.9C219.7,64.9,219.8,64.8,219.8,64.7z"/>
	<rect x="234.4" y="59" class="st0" width="2.1" height="7.6"/>
	<path class="st0" d="M230.7,61.5h-1.8V59h-2.1v7.6h3.6c1,0,1.8-0.2,2.4-0.7c0.6-0.5,0.9-1.1,0.9-2c0-0.8-0.3-1.4-0.8-1.9
		C232.3,61.7,231.6,61.5,230.7,61.5z M231.1,64.8c-0.2,0.2-0.5,0.3-0.9,0.3h-1.3V63h1.3c0.4,0,0.7,0.1,0.9,0.2
		c0.2,0.1,0.3,0.4,0.3,0.8C231.4,64.4,231.3,64.6,231.1,64.8z"/>
</g>
</svg>
