<svg width="230" height="84" viewBox="0 0 230 84" fill="none" xmlns="http://www.w3.org/2000/svg">
<g clip-path="url(#clip0)">
<path d="M61.1635 32.5893C61.8902 32.1684 62.738 31.988 63.6463 31.988C65.2209 31.988 66.5531 32.6495 67.6432 33.9723L70.7317 31.2064C69.8838 30.1842 68.8543 29.4025 67.5826 28.8613C66.3109 28.3202 64.9181 28.0195 63.3436 28.0195C61.5268 28.0195 59.9523 28.3803 58.4989 29.162C57.1061 29.8835 55.9555 30.9658 55.1682 32.2887C54.3809 33.6115 53.957 35.1749 53.957 36.8585C53.957 38.5421 54.3809 40.0453 55.1682 41.4283C55.9555 42.7511 57.1061 43.8334 58.4989 44.555C59.8917 45.2765 61.5268 45.6974 63.3436 45.6974C64.9181 45.6974 66.3109 45.3968 67.5826 44.8556C68.8543 44.3144 69.8838 43.5328 70.7317 42.5106L67.6432 39.7447C66.5531 41.0675 65.2209 41.7289 63.6463 41.7289C62.738 41.7289 61.8902 41.5485 61.1635 41.1276C60.4368 40.7067 59.8917 40.1656 59.4678 39.444C59.0439 38.7225 58.8622 37.8807 58.8622 36.9186C58.8622 35.9565 59.0439 35.1147 59.4678 34.3932C59.8917 33.5514 60.4368 32.9501 61.1635 32.5893ZM77.6958 38.482H85.2656V34.8742H77.6958V31.988H86.2951V28.26H72.9117V45.2164H86.5979V41.4884H77.6958V38.482ZM101.192 29.1019C100.042 28.6208 98.7095 28.3202 97.1956 28.3202H89.3836V45.2765H94.2282V40.827H97.1956C98.7701 40.827 100.102 40.5865 101.192 40.0453C102.343 39.5643 103.191 38.8427 103.796 37.8807C104.402 36.9186 104.705 35.8363 104.705 34.5736C104.705 33.3109 104.402 32.1684 103.796 31.2665C103.251 30.3044 102.343 29.5829 101.192 29.1019ZM99.1334 36.4376C98.649 36.8585 97.8617 37.099 96.8928 37.099H94.2282V32.1083H96.8928C97.8617 32.1083 98.649 32.3488 99.1334 32.7697C99.6179 33.1906 99.8601 33.7919 99.8601 34.6337C99.8601 35.4755 99.6785 36.0167 99.1334 36.4376ZM111.73 38.482H119.299V34.8742H111.73V31.988H120.329V28.26H106.945V45.2164H120.632V41.4884H111.73V38.482ZM137.346 36.0768C136.256 35.235 134.681 34.754 132.562 34.754H128.141V31.988H137.648V28.26H123.357V45.2164H131.895C134.136 45.2164 135.832 44.7354 137.103 43.7733C138.315 42.8112 138.981 41.4884 138.981 39.7447C138.981 38.1813 138.436 36.9186 137.346 36.0768ZM133.47 41.3681C133.046 41.6688 132.44 41.8492 131.593 41.8492H128.141V38.1813H131.593C133.228 38.1813 134.076 38.7826 134.076 39.9852C134.136 40.5865 133.894 41.0074 133.47 41.3681ZM153.333 29.1019C152.182 28.6208 150.85 28.3202 149.336 28.3202H141.524V45.2765H146.369V40.827H149.336C150.85 40.827 152.243 40.5865 153.333 40.0453C154.484 39.5643 155.331 38.8427 155.937 37.8807C156.543 36.9186 156.845 35.8363 156.845 34.5736C156.845 33.3109 156.543 32.1684 155.937 31.2665C155.331 30.3044 154.423 29.5829 153.333 29.1019ZM151.213 36.4376C150.729 36.8585 149.942 37.099 148.973 37.099H146.308V32.1083H148.973C149.942 32.1083 150.729 32.3488 151.213 32.7697C151.698 33.1906 151.94 33.7919 151.94 34.6337C151.94 35.4755 151.759 36.0167 151.213 36.4376ZM161.266 29.1019C160.116 29.643 159.207 30.3646 158.602 31.3266C157.996 32.2887 157.693 33.4311 157.693 34.754C157.693 36.0768 157.996 37.1591 158.602 38.1212C159.207 39.0832 160.055 39.8048 161.206 40.2858L157.754 45.2765H162.841L165.626 41.0074H168.23V45.2765H173.014V28.3202H165.324C163.749 28.3202 162.417 28.5607 161.266 29.1019ZM168.23 32.1083V37.3395H165.324C164.415 37.3395 163.688 37.099 163.265 36.6781C162.78 36.2572 162.538 35.5958 162.538 34.754C162.538 33.0102 163.507 32.1684 165.384 32.1684H168.23V32.1083ZM188.033 34.6938H181.432V28.3202H176.587V45.2765H181.432V38.6623H188.033V45.2765H192.878V28.3202H188.033V34.6938ZM202.385 28.3202L194.876 45.2765H199.781L201.113 41.9694H208.32L209.652 45.2765H214.678L207.109 28.3202H202.385ZM202.506 38.4218L204.686 33.0102L206.866 38.4218H202.506ZM222.309 28.3202C220.734 28.3202 219.402 28.5607 218.251 29.1019C217.101 29.643 216.192 30.3646 215.587 31.3266C214.981 32.2887 214.678 33.4311 214.678 34.754C214.678 36.0768 214.981 37.1591 215.587 38.1212C216.192 39.0832 217.04 39.8048 218.191 40.2858L214.739 45.2765H219.826L222.612 41.0074H225.216V45.2765H230V28.3202H222.309ZM225.216 37.3395H222.309C221.4 37.3395 220.674 37.099 220.25 36.6781C219.765 36.2572 219.523 35.5958 219.523 34.754C219.523 33.0102 220.492 32.1684 222.369 32.1684H225.216V37.3395Z" fill="#333333"/>
<path d="M64.2518 60.7908C64.7968 60.4901 65.2813 60.1294 65.5841 59.6483C65.8869 59.1673 66.0685 58.6262 66.0685 57.9647C66.0685 56.8824 65.6446 56.0406 64.7968 55.4393C63.949 54.838 62.7378 54.5374 61.1633 54.5374H54.6836V67.5252H61.4056C63.0406 67.5252 64.3729 67.1644 65.2813 66.503C66.1896 65.8416 66.6136 64.9397 66.6136 63.7972C66.6136 63.0156 66.4319 62.4143 66.008 61.8731C65.5841 61.4522 64.9785 61.0313 64.2518 60.7908ZM58.3171 57.2432H60.6789C61.7083 57.2432 62.2534 57.6641 62.2534 58.5059C62.2534 59.3477 61.7083 59.7686 60.6789 59.7686H58.3171V57.2432ZM61.2239 64.9397H58.3171V62.2339H61.2239C62.3139 62.2339 62.8589 62.6548 62.8589 63.5567C62.8589 64.5188 62.3139 64.9397 61.2239 64.9397ZM78.7858 55.1988C77.6957 54.5975 76.424 54.2969 75.0311 54.2969C73.6383 54.2969 72.4271 54.5975 71.2765 55.1988C70.1865 55.8001 69.2781 56.5818 68.6725 57.604C68.067 58.6262 67.7036 59.7686 67.7036 61.0914C67.7036 62.3541 68.0064 63.5567 68.6725 64.5789C69.2781 65.6011 70.1865 66.3828 71.2765 66.9841C72.3666 67.5853 73.6383 67.886 75.0311 67.886C76.424 67.886 77.6351 67.5853 78.7858 66.9841C79.9364 66.3828 80.7842 65.6011 81.3897 64.5789C81.9953 63.5567 82.3587 62.4143 82.3587 61.0914C82.3587 59.8287 82.0559 58.6262 81.3897 57.604C80.7236 56.5818 79.8758 55.8001 78.7858 55.1988ZM78.1196 63.0156C77.8168 63.5567 77.3929 64.0377 76.8479 64.3384C76.3029 64.639 75.6973 64.8194 75.0311 64.8194C74.365 64.8194 73.7594 64.639 73.2144 64.3384C72.6694 64.0377 72.2455 63.6168 71.9427 63.0156C71.6399 62.4744 71.4582 61.813 71.4582 61.0914C71.4582 60.3699 71.6399 59.7085 71.9427 59.1673C72.2455 58.6262 72.6694 58.1451 73.2144 57.8445C73.7594 57.5438 74.365 57.3634 75.0311 57.3634C75.6973 57.3634 76.3029 57.5438 76.8479 57.8445C77.3929 58.1451 77.8168 58.566 78.1196 59.1673C78.4224 59.7085 78.6041 60.3699 78.6041 61.0914C78.6041 61.813 78.4224 62.4744 78.1196 63.0156ZM96.2265 54.5975H85.6894L85.5683 58.6262C85.5077 60.6104 85.326 62.0535 84.9627 63.1358C84.6599 64.158 84.1149 64.6992 83.3276 64.6992H82.8432V70.231H86.2344V67.5853H94.5914V70.231H97.9827V64.6992H96.2265V54.5975ZM92.593 64.6992H87.6272C87.9906 64.158 88.2328 63.4365 88.4145 62.4744C88.5962 61.5123 88.7173 60.3098 88.7779 58.9268L88.8384 57.5438H92.593V64.6992ZM108.035 54.5975H104.402L98.5883 67.5853H102.343L103.372 65.0599H108.883L109.913 67.5853H113.788L108.035 54.5975ZM104.523 62.3541L106.219 58.2052L107.914 62.3541H104.523Z" fill="#333333"/>
<path d="M117.785 67.5856H119.602V54.5978H117.785V67.5856ZM142.372 59.0473H142.856V54.5978H144.794V54.1769H140.494V54.5978H142.432V59.0473H142.372ZM132.319 59.0473C132.804 59.0473 133.228 58.9271 133.591 58.7467C133.954 58.5062 134.257 58.2657 134.499 57.8448C134.741 57.484 134.802 57.0631 134.802 56.5821C134.802 56.101 134.681 55.6801 134.499 55.3193C134.257 54.9586 134.015 54.6579 133.591 54.4174C133.228 54.1769 132.804 54.1168 132.319 54.1168C131.835 54.1168 131.411 54.237 131.047 54.4174C130.684 54.6579 130.381 54.8984 130.139 55.3193C129.897 55.6801 129.836 56.101 129.836 56.5821C129.836 57.0631 129.957 57.484 130.139 57.8448C130.381 58.2055 130.623 58.5062 131.047 58.7467C131.471 58.9872 131.895 59.0473 132.319 59.0473ZM130.623 57.6644C130.442 57.3637 130.381 57.003 130.381 56.5821C130.381 56.1611 130.442 55.8004 130.623 55.4997C130.805 55.1991 131.047 54.9586 131.35 54.7782C131.653 54.5978 131.956 54.5377 132.38 54.5377C132.743 54.5377 133.106 54.5978 133.409 54.7782C133.712 54.9586 133.954 55.1991 134.136 55.4997C134.318 55.8004 134.378 56.1611 134.378 56.5821C134.378 57.003 134.318 57.3637 134.136 57.6644C133.954 57.965 133.712 58.2055 133.409 58.3859C133.106 58.5663 132.804 58.6264 132.38 58.6264C132.016 58.6264 131.653 58.5663 131.35 58.3859C131.047 58.2055 130.805 57.965 130.623 57.6644ZM165.142 60.7911H164.778C164.778 61.1518 164.899 61.4525 165.142 61.6329C165.384 61.8133 165.687 61.9335 166.111 61.9335C166.535 61.9335 166.837 61.8133 167.08 61.6329C167.322 61.4525 167.443 61.1518 167.443 60.7911H167.08C167.08 61.0316 166.958 61.2721 166.777 61.3924C166.595 61.5126 166.353 61.6329 166.111 61.6329C165.868 61.6329 165.566 61.5727 165.384 61.3924C165.263 61.212 165.142 61.0316 165.142 60.7911ZM128.201 54.1769H124.749L124.689 55.8004C124.628 56.7023 124.568 57.3637 124.447 57.9049C124.325 58.3859 124.083 58.6866 123.78 58.6866H123.478V60.31H123.902V59.1075H128.565V60.31H128.988V58.6866H128.201V54.1769ZM127.717 58.6264H124.386C124.628 58.446 124.81 58.1454 124.87 57.6644C124.992 57.1833 125.052 56.5821 125.052 55.8004L125.113 54.5978H127.656V58.6264H127.717ZM137.043 58.7467C137.406 58.9872 137.83 59.0473 138.314 59.0473C138.738 59.0473 139.041 58.9872 139.404 58.8068C139.707 58.6264 140.01 58.446 140.192 58.1454L139.828 57.9049C139.647 58.1454 139.465 58.3258 139.162 58.446C138.92 58.5663 138.617 58.6264 138.314 58.6264C137.951 58.6264 137.588 58.5663 137.285 58.3859C136.982 58.2055 136.74 57.965 136.558 57.6644C136.377 57.3637 136.316 57.003 136.316 56.5821C136.316 56.1611 136.377 55.8004 136.558 55.4997C136.74 55.1991 136.982 54.9586 137.285 54.7782C137.588 54.5978 137.951 54.5377 138.314 54.5377C138.617 54.5377 138.92 54.5978 139.162 54.7181C139.404 54.8383 139.647 55.0187 139.828 55.2592L140.192 55.0187C140.01 54.7181 139.707 54.4775 139.404 54.3573C139.102 54.1769 138.738 54.1168 138.314 54.1168C137.83 54.1168 137.406 54.237 137.043 54.4174C136.679 54.5978 136.377 54.8984 136.134 55.3193C135.892 55.6801 135.832 56.101 135.832 56.5821C135.832 57.0631 135.953 57.484 136.134 57.8448C136.377 58.2657 136.679 58.5663 137.043 58.7467ZM143.341 64.4589H141.827V62.7152H141.342V67.5856H143.22C143.886 67.5856 144.37 67.4654 144.673 67.1647C144.976 66.8641 145.157 66.5033 145.157 65.9621C145.157 65.4811 144.976 65.0602 144.673 64.8197C144.37 64.5792 144.007 64.4589 143.341 64.4589ZM144.37 66.9242C144.128 67.1046 143.765 67.2249 143.22 67.2249H141.827V64.8197H143.22C143.704 64.8197 144.128 64.94 144.37 65.1203C144.612 65.3007 144.734 65.6014 144.734 66.0223C144.734 66.3831 144.612 66.6837 144.37 66.9242ZM131.169 66.804V62.6551H130.684V67.5255H131.108L134.62 63.3766V67.5255H135.105V62.6551H134.681L131.169 66.804ZM124.386 67.5255H124.87V63.076H128.201V67.5255H128.686V62.6551H124.386V67.5255ZM136.074 63.076H138.012V67.5255H138.496V63.076H140.434V62.6551H136.134V63.076H136.074ZM160.479 59.0473H161.024L158.904 56.5219L160.903 54.1769H160.358L158.48 56.4017H157.269V54.1769H156.845V59.0473H157.33V56.7624H158.541L160.479 59.0473ZM181.674 62.9557C181.311 62.7152 180.887 62.6551 180.402 62.6551C179.918 62.6551 179.494 62.7753 179.131 62.9557C178.767 63.1962 178.464 63.4367 178.222 63.8576C177.98 64.2184 177.919 64.6393 177.919 65.1203C177.919 65.6014 178.041 66.0223 178.222 66.3831C178.464 66.7438 178.707 67.0445 179.131 67.285C179.494 67.5255 179.918 67.5856 180.402 67.5856C180.887 67.5856 181.311 67.4654 181.674 67.285C182.037 67.0445 182.34 66.804 182.582 66.3831C182.825 66.0223 182.885 65.6014 182.885 65.1203C182.885 64.6393 182.764 64.2184 182.582 63.8576C182.401 63.4969 182.037 63.1361 181.674 62.9557ZM182.098 66.2027C181.916 66.5033 181.674 66.7438 181.371 66.9242C181.068 67.1046 180.766 67.1647 180.342 67.1647C179.978 67.1647 179.615 67.1046 179.312 66.9242C179.009 66.7438 178.767 66.5033 178.586 66.2027C178.404 65.902 178.343 65.5413 178.343 65.1203C178.343 64.6994 178.404 64.3387 178.586 64.038C178.767 63.7374 179.009 63.4969 179.312 63.3165C179.615 63.1361 179.918 63.076 180.342 63.076C180.705 63.076 181.068 63.1361 181.371 63.3165C181.674 63.4969 181.916 63.7374 182.098 64.038C182.28 64.3387 182.34 64.6994 182.34 65.1203C182.401 65.4811 182.28 65.8419 182.098 66.2027ZM175.679 65.0602C175.982 65.0001 176.163 64.8197 176.345 64.6393C176.527 64.4589 176.587 64.2184 176.587 63.9178C176.587 63.4969 176.405 63.1962 176.103 63.0158C175.8 62.8355 175.376 62.7152 174.831 62.7152H172.772V67.5856H174.892C175.497 67.5856 175.982 67.4654 176.284 67.2249C176.587 66.9843 176.769 66.6837 176.769 66.2628C176.769 65.5412 176.405 65.1805 175.679 65.0602ZM173.256 63.076H174.831C175.255 63.076 175.558 63.1361 175.8 63.3165C176.042 63.4969 176.163 63.6773 176.163 63.9779C176.163 64.2785 176.042 64.5191 175.8 64.6393C175.558 64.8197 175.255 64.8798 174.831 64.8798H173.256V63.076ZM174.892 67.1647H173.256V65.2406H175.013C175.497 65.2406 175.8 65.3007 176.042 65.4811C176.284 65.6615 176.345 65.902 176.345 66.2027C176.284 66.8641 175.86 67.1647 174.892 67.1647ZM164.415 66.804V62.6551H163.931V67.5255H164.354L167.867 63.3766V67.5255H168.351V62.6551H167.927L164.415 66.804ZM188.214 62.6551H184.763L184.702 64.2785C184.641 65.1805 184.581 65.8419 184.46 66.3831C184.339 66.8641 184.096 67.1647 183.794 67.1647H183.491V68.7882H183.915V67.5856H188.578V68.7882H189.002V67.1647H188.214V62.6551ZM187.73 67.1647H184.399C184.641 66.9843 184.823 66.6837 184.884 66.2027C185.005 65.7216 185.065 65.1203 185.065 64.3387L185.126 63.1361H187.669V67.1647H187.73ZM192.332 64.4589H190.879V62.7152H190.394V67.5856H192.211C192.877 67.5856 193.362 67.4654 193.665 67.1647C193.967 66.8641 194.149 66.5033 194.149 65.9621C194.149 65.4811 193.967 65.0602 193.665 64.8197C193.422 64.5792 192.938 64.4589 192.332 64.4589ZM193.362 66.9242C193.12 67.1046 192.696 67.2249 192.211 67.2249H190.879V64.8197H192.211C192.696 64.8197 193.12 64.94 193.362 65.1203C193.604 65.3007 193.725 65.6014 193.725 66.0223C193.725 66.3831 193.604 66.6837 193.362 66.9242ZM195.118 62.6551V67.5255H195.602V62.6551H195.118ZM165.142 58.1454V58.9872H165.566V55.9206C165.566 55.3193 165.384 54.8984 165.081 54.5377C164.778 54.237 164.294 54.0566 163.688 54.0566C163.325 54.0566 162.962 54.1168 162.598 54.237C162.235 54.3573 161.932 54.5377 161.69 54.7181L161.932 55.0788C162.114 54.8984 162.417 54.7181 162.719 54.6579C163.022 54.5377 163.325 54.4775 163.628 54.4775C164.112 54.4775 164.476 54.5978 164.718 54.8383C164.96 55.0788 165.081 55.4396 165.081 55.8605V56.2814H163.385C162.719 56.2814 162.295 56.4017 161.993 56.6422C161.69 56.8827 161.569 57.2435 161.569 57.6042C161.569 58.0251 161.75 58.3859 162.053 58.6264C162.356 58.8669 162.78 58.9872 163.325 58.9872C163.749 58.9872 164.112 58.9271 164.415 58.7467C164.778 58.6866 165.021 58.446 165.142 58.1454ZM162.477 58.3859C162.235 58.2055 162.114 57.965 162.114 57.6042C162.114 57.3036 162.235 57.0631 162.417 56.8827C162.598 56.7023 162.962 56.6422 163.446 56.6422H165.142V57.5441C165.021 57.9049 164.778 58.1454 164.476 58.3859C164.173 58.5663 163.87 58.6866 163.446 58.6866C163.022 58.6866 162.659 58.5663 162.477 58.3859ZM154.726 58.6866C155.028 58.446 155.21 58.1454 155.21 57.7245C155.21 57.0631 154.847 56.6422 154.12 56.5219C154.423 56.4618 154.605 56.2814 154.786 56.101C154.968 55.9206 155.028 55.6801 155.028 55.3795C155.028 54.9586 154.847 54.6579 154.544 54.4775C154.241 54.2972 153.817 54.1769 153.272 54.1769H151.213V59.0473H153.333C153.938 59.0473 154.362 58.9271 154.726 58.6866ZM151.637 54.5377H153.212C153.636 54.5377 153.938 54.5978 154.181 54.7782C154.423 54.9586 154.544 55.139 154.544 55.4396C154.544 55.7402 154.423 55.9808 154.181 56.101C153.938 56.2814 153.636 56.3415 153.212 56.3415H151.637V54.5377ZM151.637 58.6264V56.7023H153.393C153.878 56.7023 154.181 56.7624 154.423 56.9428C154.665 57.1232 154.726 57.3637 154.726 57.6644C154.726 58.2657 154.241 58.6264 153.333 58.6264H151.637ZM149.639 62.9557C149.275 62.7753 148.912 62.6551 148.428 62.6551C147.943 62.6551 147.58 62.7753 147.216 62.9557C146.853 63.1962 146.55 63.4367 146.369 63.8576C146.187 64.2184 146.066 64.6393 146.066 65.1203C146.066 65.6014 146.187 66.0223 146.369 66.3831C146.611 66.7438 146.914 67.0445 147.277 67.285C147.64 67.5255 148.125 67.5856 148.609 67.5856C148.973 67.5856 149.336 67.5255 149.639 67.4052C149.942 67.285 150.244 67.0445 150.426 66.804L150.123 66.5033C149.942 66.7438 149.699 66.9242 149.457 66.9843C149.154 67.1046 148.912 67.1647 148.549 67.1647C148.185 67.1647 147.822 67.1046 147.519 66.9242C147.216 66.7438 146.974 66.5634 146.793 66.2628C146.611 65.9621 146.49 65.6014 146.49 65.2406H150.729V65.1203C150.729 64.6393 150.608 64.2184 150.426 63.8576C150.305 63.4367 150.002 63.1361 149.639 62.9557ZM146.55 64.8798C146.55 64.5191 146.671 64.2184 146.853 63.9178C147.035 63.6171 147.216 63.4367 147.519 63.2564C147.822 63.076 148.125 63.0158 148.428 63.0158C148.73 63.0158 149.094 63.076 149.336 63.2564C149.639 63.4367 149.82 63.6171 150.002 63.9178C150.184 64.2184 150.244 64.5191 150.305 64.8798H146.55ZM155.271 65.0602C155.573 65.0001 155.755 64.8197 155.937 64.6393C156.118 64.4589 156.179 64.2184 156.179 63.9178C156.179 63.4969 155.997 63.1962 155.695 63.0158C155.392 62.8355 154.968 62.7152 154.423 62.7152H152.364V67.5856H154.483C155.089 67.5856 155.573 67.4654 155.876 67.2249C156.179 66.9843 156.361 66.6837 156.361 66.2628C156.3 65.5412 155.937 65.1805 155.271 65.0602ZM152.788 63.076H154.362C154.786 63.076 155.089 63.1361 155.331 63.3165C155.573 63.4969 155.695 63.6773 155.695 63.9779C155.695 64.2785 155.573 64.5191 155.331 64.6393C155.089 64.8197 154.786 64.8798 154.362 64.8798H152.788V63.076ZM154.423 67.1647H152.788V65.2406H154.544C155.028 65.2406 155.331 65.3007 155.573 65.4811C155.816 65.6615 155.876 65.902 155.876 66.2027C155.876 66.8641 155.392 67.1647 154.423 67.1647ZM161.205 62.9557C160.842 62.7152 160.418 62.6551 159.934 62.6551C159.449 62.6551 159.025 62.7753 158.662 62.9557C158.299 63.1962 157.996 63.4367 157.754 63.8576C157.511 64.2184 157.451 64.6393 157.451 65.1203C157.451 65.6014 157.572 66.0223 157.754 66.3831C157.996 66.7438 158.238 67.0445 158.662 67.285C159.025 67.5255 159.449 67.5856 159.934 67.5856C160.418 67.5856 160.842 67.4654 161.205 67.285C161.569 67.0445 161.872 66.804 162.114 66.3831C162.356 66.0223 162.417 65.6014 162.417 65.1203C162.417 64.6393 162.295 64.2184 162.114 63.8576C161.932 63.4969 161.569 63.1361 161.205 62.9557ZM161.69 66.2027C161.508 66.5033 161.266 66.7438 160.963 66.9242C160.66 67.1046 160.358 67.1647 159.934 67.1647C159.57 67.1647 159.207 67.1046 158.904 66.9242C158.601 66.7438 158.359 66.5033 158.177 66.2027C157.996 65.902 157.935 65.5413 157.935 65.1203C157.935 64.6994 157.996 64.3387 158.177 64.038C158.359 63.7374 158.601 63.4969 158.904 63.3165C159.207 63.1361 159.51 63.076 159.934 63.076C160.297 63.076 160.66 63.1361 160.963 63.3165C161.266 63.4969 161.508 63.7374 161.69 64.038C161.872 64.3387 161.932 64.6994 161.932 65.1203C161.932 65.4811 161.872 65.8419 161.69 66.2027ZM148.125 58.8068C148.428 58.6264 148.67 58.446 148.791 58.1454V58.9872H149.215V55.9206C149.215 55.3193 149.033 54.8984 148.73 54.5377C148.428 54.237 147.943 54.0566 147.338 54.0566C146.974 54.0566 146.611 54.1168 146.248 54.237C145.884 54.3573 145.581 54.5377 145.339 54.7181L145.581 55.0788C145.763 54.8984 146.066 54.7181 146.369 54.6579C146.671 54.5978 146.974 54.4775 147.277 54.4775C147.761 54.4775 148.125 54.5978 148.367 54.8383C148.609 55.0788 148.73 55.4396 148.73 55.8605V56.2814H147.035C146.369 56.2814 145.945 56.4017 145.642 56.6422C145.339 56.8827 145.218 57.2435 145.218 57.6042C145.218 58.0251 145.4 58.3859 145.702 58.6264C146.005 58.8669 146.429 58.9872 146.974 58.9872C147.459 59.0473 147.822 58.9872 148.125 58.8068ZM145.763 57.6644C145.763 57.3637 145.884 57.1232 146.066 56.9428C146.248 56.7624 146.611 56.7023 147.095 56.7023H148.791V57.6042C148.67 57.965 148.428 58.2055 148.125 58.446C147.822 58.6264 147.519 58.7467 147.095 58.7467C146.671 58.7467 146.308 58.6264 146.066 58.446C145.824 58.2657 145.763 57.965 145.763 57.6644Z" fill="#333333"/>
<path d="M23.5567 41.3693C32.2771 41.4896 39.3018 40.287 41.7847 38.4831C44.2676 36.6793 42.1481 35.7773 41.1791 34.3944C40.3313 33.1918 39.7257 30.8468 41.1791 29.5239C37.7273 30.7866 35.2444 31.7487 35.5472 34.8153C35.85 37.8818 26.3424 38.1825 15.5025 38.3629C4.54143 38.4831 -0.787687 44.977 0.120686 50.0279C0.423477 45.879 6.96376 41.1288 23.5567 41.3693ZM23.5567 67.345C32.2771 67.4652 39.3018 66.2627 41.7847 64.4588C44.2676 62.6549 42.572 60.3099 41.1791 54.8382C39.1202 46.841 39.7257 41.7301 41.1791 40.4073C37.7273 41.67 34.8205 43.6542 38.0301 59.5282C38.6357 62.5347 26.3424 64.1581 15.4419 64.2784C4.54143 64.4588 -0.787687 70.9527 0.060128 76.0035C0.423477 71.8546 6.96376 67.1045 23.5567 67.345ZM0.302361 38.3027C3.26971 32.4702 14.2913 31.5082 23.5567 30.967C23.5567 30.967 42.9353 30.6664 42.9353 27.4194C42.9353 25.7959 40.2708 23.6313 36.5767 21.7072C36.5767 21.7072 29.4309 17.7387 26.7663 15.8146C24.1017 13.8904 24.889 9.8618 24.889 8.53897C24.889 7.21613 23.3145 7.21613 23.1934 8.29845C23.1934 9.4409 23.4961 9.74154 22.6483 10.5833C21.8005 11.4252 19.9838 10.403 17.077 13.0486C17.077 13.0486 21.0133 11.9062 21.0133 13.71C21.0133 15.5139 19.4993 17.1975 12.6562 19.302C7.50879 20.685 2.05855 22.9699 0.423477 26.277C3.33027 22.6091 16.9559 21.2863 22.9511 21.6471C28.8858 21.9477 33.0038 24.2927 33.0038 25.3149C33.0038 26.3371 0.302361 27.3593 0.302361 38.3027ZM42.3297 74.6807C41.5425 73.899 38.6357 70.2312 41.9058 67.2849C32.5193 69.9907 33.6094 73.8389 35.5472 76.7852C37.4851 79.7315 12.2929 84.602 2.17966 80.8138C10.1733 85.5039 31.0054 84.2412 38.0301 82.0765C45.0549 79.9119 43.117 75.4624 42.3297 74.6807ZM20.8316 6.07368C23.2539 6.07368 25.6762 6.37433 25.434 7.93768C26.0396 5.59265 25.7974 0.601957 24.9495 0.301313C24.1017 0.0607978 17.622 -0.119589 16.4108 0.301313C15.1997 0.722215 15.8053 5.65278 16.4108 7.93768C16.2897 6.25407 18.5304 6.07368 20.8316 6.07368Z" fill="#333333"/>
</g>
<defs>
<clipPath id="clip0">
<rect width="230" height="84" fill="white"/>
</clipPath>
</defs>
</svg>
