<svg width="63" height="36" viewBox="0 0 63 36" fill="none" xmlns="http://www.w3.org/2000/svg">
<path d="M18.1035 35.9879C28.0366 35.9879 36.0935 27.9229 36.0935 17.9898C36.0935 8.05674 28.0367 0 18.1035 0C8.16221 0 0.105469 8.05674 0.105469 17.9898C0.105469 27.9229 8.16221 35.9879 18.1035 35.9879Z" fill="#E2001A"/>
<path d="M44.2828 35.9879C54.2159 35.9879 62.2726 27.9229 62.2726 17.9898C62.2726 8.05674 54.216 0 44.2828 0C34.3414 0 26.293 8.05674 26.293 17.9898C26.293 27.9229 34.3414 35.9879 44.2828 35.9879Z" fill="#F6A800"/>
<path d="M31.1813 30.3337C28.1528 27.1077 26.293 22.7625 26.293 17.9893C26.293 13.2655 28.1199 8.96148 31.0908 5.75195L31.4694 5.94946C34.3415 9.14253 36.0945 13.3643 36.0945 17.9893C36.0945 22.639 34.3251 26.869 31.4366 30.0703L31.1813 30.3337Z" fill="#EB690A"/>
<path d="M56.5352 33.0249C56.5352 31.8563 57.4898 30.9922 58.609 30.9922C59.7118 30.9922 60.6664 31.8564 60.6664 33.0249C60.6664 34.2017 59.7118 35.0576 58.609 35.0576C57.4898 35.0576 56.5352 34.2017 56.5352 33.0249Z" fill="black"/>
<path d="M58.1743 34.2028H57.8203V31.8574H58.7174C59.2688 31.8574 59.5404 32.0549 59.5404 32.524C59.5404 32.9437 59.2769 33.1248 58.9395 33.1658L59.6061 34.2027H59.203L58.5858 33.1823H58.1743V34.2028Z" fill="white"/>
<path d="M58.1328 32.8697V32.1621H58.8982C59.2273 32.4337 59.3179 32.5571 58.8982 32.8697H58.1328Z" fill="black"/>
<path d="M39.6739 19.1918C40.3818 19.1918 41.0153 18.8626 41.4268 18.3441H42.8834C42.3403 19.5787 41.106 20.4674 39.6739 20.4674C37.7399 20.4674 36.1764 18.8955 36.1764 16.978C36.1764 15.0441 37.7399 13.4805 39.6739 13.4805C41.0812 13.4805 42.3237 14.3117 42.8589 15.579H41.4102C41.0071 15.0688 40.3735 14.7478 39.6739 14.7478C38.4396 14.7478 37.4437 15.7436 37.4437 16.978C37.4437 18.196 38.4396 19.1918 39.6739 19.1918Z" fill="white"/>
<path d="M5.20856 13.4806H3.63672V20.1794H4.96166V15.2746L6.68999 20.1794H7.66912L9.39746 15.2088V20.1794H10.6894V13.4806H9.0271L7.22487 18.5089L5.20856 13.4806Z" fill="white"/>
<path fill-rule="evenodd" clip-rule="evenodd" d="M17.306 18.0542V20.1794H16.2032V19.8142C15.7674 20.1217 15.2363 20.3029 14.6644 20.3029C13.183 20.3029 11.9897 19.1013 11.9897 17.6364C11.9897 16.1551 13.183 14.9618 14.6644 14.9618C15.2363 14.9618 15.7674 15.1417 16.2032 15.4486V15.0524H17.306V17.2145C17.3277 17.3519 17.339 17.4928 17.339 17.6364C17.339 17.7784 17.3277 17.918 17.306 18.0542ZM16.2032 17.6364C16.2032 16.7888 15.512 16.0975 14.6644 16.0975C13.8167 16.0975 13.1254 16.7888 13.1254 17.6364C13.1254 18.4758 13.8167 19.1671 14.6644 19.1671C15.512 19.1671 16.2032 18.4758 16.2032 17.6364Z" fill="white"/>
<path d="M24.6799 15.0524V13.5711H23.5195V15.0524H22.8529V16.2786H23.5195V20.1795H24.6799V16.2786H25.4369V15.0524H24.6799Z" fill="white"/>
<path fill-rule="evenodd" clip-rule="evenodd" d="M49.0473 17.2677V15.0524H47.9447V15.4519C47.5085 15.143 46.975 14.9618 46.3977 14.9618C44.9245 14.9619 43.723 16.1552 43.723 17.6365C43.723 19.1014 44.9247 20.3029 46.3977 20.3029C46.975 20.3029 47.5085 20.1204 47.9447 19.8109V20.1794H49.0473V18.0014C49.0638 17.882 49.0723 17.7602 49.0723 17.6364C49.0723 17.5113 49.0638 17.3882 49.0473 17.2677ZM47.9365 17.6364C47.9365 16.7888 47.2453 16.0975 46.3977 16.0975C45.55 16.0975 44.8587 16.7889 44.8587 17.6365C44.8587 18.4759 45.55 19.1671 46.3977 19.1671C47.2453 19.1671 47.9365 18.4758 47.9365 17.6364Z" fill="white"/>
<path fill-rule="evenodd" clip-rule="evenodd" d="M59.0052 13.7686V17.2705C59.0215 17.3901 59.03 17.5122 59.03 17.6364C59.03 17.7592 59.0215 17.8801 59.0052 17.9986V20.1794H57.9024V19.8084C57.4651 20.1194 56.9309 20.3029 56.3553 20.3029C54.8822 20.3029 53.6807 19.1013 53.6807 17.6364C53.6807 16.1551 54.8822 14.9618 56.3553 14.9618C56.9309 14.9618 57.4651 15.144 57.9024 15.4545V13.7686H59.0052ZM56.3553 16.0975C57.203 16.0975 57.8941 16.7888 57.8941 17.6364C57.8941 18.4758 57.203 19.1671 56.3553 19.1671C55.5077 19.1671 54.8163 18.4758 54.8163 17.6364C54.8163 16.7888 55.5077 16.0975 56.3553 16.0975Z" fill="white"/>
<path d="M34.0285 15.0524H32.8847V20.1794H34.0448V16.7887C34.3165 16.2374 35.1311 16.1222 35.2628 16.1222V15.0194C34.9914 15.0194 34.0614 15.2251 34.0285 15.7271V15.0524Z" fill="white"/>
<path d="M50.4136 15.0524H51.5657V15.7271C51.5987 15.2251 52.5285 15.0194 52.792 15.0194V16.1222C52.6685 16.1222 51.8456 16.2374 51.5822 16.7887V20.1794H50.4136V15.0524Z" fill="white"/>
<path d="M20.7624 16.5173H21.8898C21.8898 15.6203 21.3138 15.0689 20.3673 15.0689C19.421 15.0689 18.672 15.5627 18.672 16.6654C18.672 17.6802 19.6549 17.8936 19.959 17.9596L19.9936 17.9673L20.0217 17.9739C20.0456 17.9807 20.0737 17.9876 20.1052 17.9953C20.3767 18.0617 20.8859 18.1863 20.8859 18.8133C20.8859 19.0767 20.5731 19.1425 20.3014 19.1425C20.0382 19.1425 19.7666 18.9368 19.7666 18.6323H18.5075C18.5075 19.7844 19.4045 20.2453 20.3014 20.2453C21.1987 20.2453 22.0543 19.521 22.0543 18.6486C22.0543 17.7929 21.215 17.2907 20.5566 17.192C19.561 17.0521 19.6596 16.188 20.2356 16.188C20.7254 16.1881 20.7468 16.3821 20.7584 16.4866L20.7591 16.4914L20.7598 16.4966L20.7604 16.5017L20.7615 16.5099L20.7624 16.5173Z" fill="white"/>
<path fill-rule="evenodd" clip-rule="evenodd" d="M31.5925 18.1631C31.6008 18.0891 31.6091 18.0067 31.6091 17.9327V17.7105C31.568 16.5172 30.819 15.0523 28.9837 15.0359L28.9507 15.036C27.2885 15.036 26.3832 16.4185 26.3749 17.7682V17.8176C26.3997 19.0933 27.2143 20.3195 28.9344 20.3195L28.9837 20.3194C30.0207 20.3029 31.4774 19.6281 31.4774 18.764H30.0866C30.0866 18.9698 29.5514 19.159 28.9837 19.1509C28.3582 19.1426 27.7081 18.8873 27.7081 18.1631H31.5925ZM28.9837 16.2785C29.6093 16.2785 30.2265 16.5666 30.2265 17.1344H27.741C27.741 16.5666 28.3582 16.2785 28.9837 16.2785Z" fill="white"/>
</svg>
