<svg width="67" height="20" viewBox="0 0 67 20" fill="none" xmlns="http://www.w3.org/2000/svg">
<path fill-rule="evenodd" clip-rule="evenodd" d="M59.4985 0.796875H46.8359C47.5167 5.01775 51.6014 8.9663 56.0946 8.9663H66.1703C66.3064 8.55783 66.3064 8.0132 66.3064 7.60473C66.3064 3.79233 63.3109 0.796875 59.4985 0.796875Z" fill="url(#paint0_linear_514_1291)"/>
<path d="M0.271484 0.796875V19.8589H6.39856V9.64709H7.07934L10.4833 19.8589H13.2064L16.6103 9.64709H17.2911V19.8589H23.4182V0.796875H17.2911C17.2911 0.796875 15.52 0.796875 14.568 3.52002C12.39 9.91934 11.8448 11.6894 11.8448 11.6894C11.8448 11.6894 11.5736 10.7364 9.1217 3.52002C8.16966 0.796875 6.39856 0.796875 6.39856 0.796875H0.271484Z" fill="#4DB45F"/>
<path d="M26.1413 0.796875V19.8589H31.5876C31.5876 19.8589 32.9492 19.8589 33.63 18.4973L38.3955 8.9663H39.0763V19.8589H45.2033V0.796875H39.7571C39.7571 0.796875 38.3955 0.932999 37.7147 2.15845L32.9492 11.6894H32.2684V0.796875H26.1413Z" fill="#4DB45F"/>
<path d="M47.9265 9.64709V19.8589H54.0536V14.4126H59.4998C62.4942 14.4126 65.0817 12.3702 65.8982 9.64709H47.9265Z" fill="#4DB45F"/>
<defs>
<linearGradient id="paint0_linear_514_1291" x1="46.8008" y1="4.88159" x2="66.3064" y2="4.88159" gradientUnits="userSpaceOnUse">
<stop stop-color="#00B4E6"/>
<stop offset="1" stop-color="#088CCB"/>
</linearGradient>
</defs>
</svg>
