<svg width="111" height="30" viewBox="0 0 111 30" fill="none" xmlns="http://www.w3.org/2000/svg">
<path d="M42.3264 15.5752C42.6861 15.1825 43.0364 14.8069 43.3819 14.4093C43.5429 14.2166 43.6589 14.3288 43.7985 14.4093C44.6796 14.9364 45.6895 15.1905 46.7072 15.141C48.177 15.0801 49.1142 13.9214 48.8822 12.3628C48.3162 12.9789 47.5563 13.3679 46.738 13.4604C44.7215 13.7043 42.7855 12.7945 42.2672 10.2894C42.169 9.7967 42.1214 9.2947 42.1252 8.79172C42.1252 7.34526 42.1252 5.8988 42.1252 4.45477C42.1252 4.11816 42.2199 4.04254 42.5252 4.06206C42.9508 4.08889 43.3776 4.08889 43.8032 4.06206C44.1298 4.0401 44.2458 4.11572 44.2387 4.48648C44.215 5.95002 44.2387 7.43063 44.2387 8.90149C44.242 9.22402 44.2825 9.54501 44.3594 9.85767C44.4352 10.267 44.6375 10.6401 44.9362 10.9211C45.2348 11.202 45.6137 11.3758 46.0161 11.4163C47.5711 11.6725 48.7544 10.748 48.8941 9.11858C49.0361 7.57455 48.9367 6.0232 48.9461 4.48404C48.9461 4.13523 49.0361 4.04986 49.358 4.06937C49.8313 4.10108 50.2881 4.08645 50.752 4.06937C50.9389 4.06937 51.0076 4.11084 51.0076 4.3133C51.0076 7.14036 51.088 9.96987 50.9721 12.7921C50.8561 15.6142 48.8846 17.2607 46.151 17.1339C44.7392 17.0878 43.387 16.5367 42.3264 15.5752Z" fill="#CD2028"/>
<path d="M0 14.0596C1.77979 11.9618 3.52407 9.91288 5.27309 7.84198C5.74644 7.27852 5.74644 7.29315 5.26126 6.71262C3.51303 4.65228 1.76716 2.59357 0.0236674 0.536487C0.089936 0.412086 0.189339 0.451114 0.267441 0.451114C1.59755 0.451114 2.92765 0.46331 4.26013 0.451114C4.35062 0.447282 4.44071 0.465624 4.52299 0.504634C4.60528 0.543643 4.67741 0.602209 4.73348 0.675523C6.54009 2.80253 8.34906 4.93117 10.1604 7.06143C10.3 7.22729 10.3166 7.3273 10.1604 7.50293C8.35222 9.63156 6.54719 11.7586 4.74531 13.884C4.69937 13.9519 4.63812 14.0074 4.56681 14.0457C4.4955 14.0839 4.41625 14.1037 4.33586 14.1035C2.94185 14.1035 1.55021 14.1035 0.156205 14.1035C0.102975 14.0937 0.0507009 14.079 0 14.0596Z" fill="#CD2028"/>
<path d="M7.2793 14.0591L10.7986 9.91243C11.4826 9.1026 12.1619 8.29278 12.8553 7.49271C12.9926 7.33416 12.9973 7.24879 12.8553 7.09024C11.1197 5.0543 9.38412 3.01266 7.64851 0.965335C7.5278 0.823859 7.41183 0.677506 7.28403 0.521395C7.43278 0.454172 7.59771 0.434624 7.75738 0.465293C9.01175 0.465293 10.2661 0.465293 11.5229 0.465293C11.6212 0.46026 11.7193 0.479814 11.8087 0.522287C11.8981 0.564761 11.9763 0.628893 12.0364 0.709216C13.832 2.82647 15.6299 4.9429 17.4302 7.05853C17.5912 7.24635 17.5746 7.34148 17.4302 7.5171C15.622 9.63598 13.8225 11.7573 12.0317 13.8811C11.9863 13.9492 11.9255 14.0049 11.8546 14.0436C11.7837 14.0822 11.7048 14.1026 11.6246 14.103C10.2306 14.103 8.83661 14.103 7.44497 14.103C7.38868 14.0931 7.33327 14.0784 7.2793 14.0591Z" fill="#CD2028"/>
<path d="M63.3274 13.5229H60.5891C60.4542 13.5229 60.3998 13.4082 60.3311 13.3204C58.8085 11.369 57.2859 9.41764 55.7633 7.46625C55.7335 7.44038 55.7094 7.40809 55.693 7.37164C55.6765 7.33519 55.668 7.29547 55.668 7.25526C55.668 7.21505 55.6765 7.17533 55.693 7.13888C55.7094 7.10243 55.7335 7.07014 55.7633 7.04427C57.2733 5.11565 58.7785 3.18297 60.2791 1.24622C60.34 1.1557 60.4219 1.08236 60.5174 1.03293C60.6129 0.983499 60.719 0.959546 60.8258 0.963266C61.6376 0.980341 62.4494 0.963266 63.344 0.963266C62.802 1.63893 62.3145 2.25118 61.8222 2.86099C60.7098 4.24159 59.5998 5.62463 58.4756 6.99304C58.3076 7.20038 58.3241 7.31258 58.4756 7.50528C60.0093 9.3965 61.5389 11.2918 63.0647 13.1911L63.3274 13.5229Z" fill="#F9A11C"/>
<path d="M105.059 8.81223C105.059 7.3682 105.059 5.92174 105.059 4.47528C105.059 4.15818 105.137 4.04109 105.457 4.05817C105.93 4.085 106.385 4.0728 106.849 4.05817C107.057 4.05817 107.149 4.12647 107.137 4.346C107.125 4.56553 107.137 4.76067 107.137 4.96556C107.137 5.04118 107.114 5.13387 107.187 5.18021C107.26 5.22656 107.32 5.14119 107.369 5.0924C108.271 4.23867 109.353 3.93377 110.555 3.9606C110.82 3.9606 110.903 4.05085 110.893 4.31916C110.876 4.794 110.876 5.27128 110.893 5.75099C110.893 6.01199 110.803 6.08029 110.564 6.07541C110.164 6.05005 109.762 6.06394 109.364 6.11688C108.06 6.3608 107.234 7.40479 107.204 8.84394C107.173 10.2831 107.18 11.7344 107.192 13.1809C107.192 13.5053 107.102 13.6102 106.789 13.5907C106.376 13.5626 105.961 13.5626 105.547 13.5907C105.175 13.6175 105.05 13.5126 105.057 13.1028C105.083 11.671 105.059 10.2465 105.059 8.81223Z" fill="#F9A11C"/>
<path d="M55.292 7.28177C55.292 9.21852 55.292 11.1553 55.292 13.092C55.292 13.4042 55.2281 13.5335 54.9015 13.514C54.4116 13.4872 53.9217 13.4994 53.4318 13.514C53.1951 13.514 53.0957 13.4677 53.0957 13.1945C53.0957 9.21852 53.0957 5.24095 53.0957 1.26175C53.0957 1.01783 53.1951 0.95929 53.4105 0.964169C53.9122 0.976365 54.414 0.986122 54.9157 0.964169C55.221 0.949534 55.2944 1.0593 55.292 1.35932C55.2873 3.3351 55.292 5.31088 55.292 7.28177Z" fill="#F9A11C"/>
<path d="M29.8761 4.67121C29.6722 3.61789 29.1161 2.67173 28.3047 1.99773C27.4933 1.32372 26.4781 0.964639 25.4361 0.9831C24.0823 0.9831 22.7261 0.9831 21.3724 0.9831C21.0647 0.9831 20.9677 1.05384 20.9724 1.38313C20.9866 3.34671 20.9724 5.30785 20.9724 7.27143V13.1475C20.9736 13.1605 20.9736 13.1736 20.9724 13.1866C20.9298 13.4524 21.0292 13.5403 21.2966 13.5305C21.8236 13.5094 22.3506 13.5094 22.8776 13.5305C23.1309 13.5305 23.1924 13.4549 23.19 13.2061C23.1758 12.3158 23.19 11.423 23.1735 10.5229C23.1735 10.1375 23.2397 10.0083 23.6468 10.0131C24.5462 10.0131 25.4526 10.0985 26.3496 9.94971C28.6785 9.56919 30.366 7.03727 29.8761 4.67121ZM25.5615 7.78123C24.8515 7.79831 24.158 7.78123 23.4551 7.78123C23.2326 7.78123 23.1853 7.70318 23.1877 7.49096C23.1995 6.82262 23.1877 6.14939 23.1877 5.48104C23.1877 4.81269 23.1877 4.16386 23.1877 3.50526C23.1877 3.34915 23.1877 3.23207 23.4007 3.23695C24.177 3.23695 24.958 3.20524 25.7295 3.26622C26.9697 3.36135 27.7862 4.36631 27.7365 5.64691C27.7014 6.21958 27.4579 6.75751 27.0547 7.15319C26.6515 7.54887 26.1182 7.77316 25.5615 7.78123Z" fill="#CD2028"/>
<path d="M93.0974 7.76792C92.9174 6.7546 92.4165 5.83139 91.673 5.14283C90.9295 4.45427 89.9855 4.03925 88.9887 3.96273C87.9985 3.8813 87.0086 4.12299 86.1591 4.65357C85.3095 5.18415 84.6435 5.97673 84.2553 6.91907C83.8813 7.83134 83.905 8.7802 83.9073 9.73394C83.9073 12.0195 83.9073 14.3026 83.9073 16.5882C83.9073 16.9126 84.0044 17.0175 84.3144 17.0004C84.7156 16.976 85.1179 16.976 85.5191 17.0004C85.8623 17.0224 85.9711 16.9077 85.9664 16.5467C85.9451 15.232 85.9664 13.9148 85.9664 12.5439C86.0179 12.5684 86.067 12.5978 86.1131 12.6317C87.3273 13.9123 89.2372 13.9514 90.6549 13.2416C92.5388 12.2829 93.54 10.0706 93.0974 7.76792ZM88.4444 11.6268C86.9415 11.6268 85.9214 10.4877 85.9285 8.7924C85.9356 7.09714 86.9439 6.00436 88.4515 6.0068C88.8096 6.00103 89.1652 6.07014 89.4967 6.20993C89.8282 6.34973 90.1288 6.55732 90.3803 6.82018C90.6318 7.08303 90.829 7.39568 90.96 7.73927C91.091 8.08285 91.1531 8.45023 91.1425 8.81923C91.1508 9.188 91.0869 9.5547 90.9545 9.89743C90.8222 10.2402 90.6242 10.5519 90.3723 10.814C90.1205 11.076 89.8199 11.2831 89.4887 11.4227C89.1574 11.5624 88.8023 11.6318 88.4444 11.6268Z" fill="#F9A11C"/>
<path d="M40.1159 8.27852C40.1159 6.97597 40.1159 5.67342 40.1159 4.37575C40.1159 4.14891 40.071 4.06109 39.8296 4.07085C39.316 4.09036 38.8024 4.08549 38.2865 4.07085C38.0877 4.07085 38.0285 4.13427 38.0379 4.33429C38.0545 4.61236 38.0379 4.89287 38.0379 5.25144C37.2161 4.42844 36.1141 3.97008 34.9682 3.97464C33.8223 3.9792 32.7238 4.44632 31.9081 5.27583C30.6395 6.5857 30.2632 8.2029 30.5946 9.96891C30.7109 10.5911 30.9492 11.1823 31.2949 11.7063C31.6406 12.2303 32.0864 12.6761 32.6051 13.0163C33.1238 13.3566 33.7044 13.5841 34.3114 13.6851C34.9183 13.786 35.5389 13.7582 36.1351 13.6034C36.8499 13.406 37.5024 13.0201 38.0285 12.4838C38.0285 12.813 38.0427 13.0692 38.0285 13.3228C38.0143 13.5765 38.0687 13.6424 38.3125 13.6302C38.8 13.6107 39.2923 13.6082 39.7799 13.6302C40.052 13.6448 40.1112 13.5424 40.1088 13.2814C40.1088 11.6081 40.1159 9.94451 40.1159 8.27852ZM35.2215 11.6715C34.8669 11.67 34.5161 11.5956 34.1897 11.4528C33.8632 11.31 33.5677 11.1016 33.3202 10.8398C33.0728 10.578 32.8785 10.268 32.7486 9.9279C32.6187 9.58781 32.5558 9.22446 32.5637 8.85906C32.553 8.491 32.6142 8.12449 32.7435 7.78123C32.8728 7.43798 33.0677 7.12497 33.3165 6.86075C33.5654 6.59653 33.8632 6.38648 34.1922 6.24304C34.5213 6.0996 34.8749 6.02569 35.2322 6.02569C35.5895 6.02569 35.9431 6.0996 36.2722 6.24304C36.6012 6.38648 36.899 6.59653 37.1478 6.86075C37.3967 7.12497 37.5915 7.43798 37.7208 7.78123C37.8502 8.12449 37.9113 8.491 37.9007 8.85906C37.9116 9.2271 37.8501 9.59361 37.7199 9.93653C37.5898 10.2794 37.3936 10.5917 37.1433 10.8544C36.893 11.1172 36.5938 11.325 36.2635 11.4654C35.9332 11.6058 35.5788 11.6759 35.2215 11.6715Z" fill="#CD2028"/>
<path d="M103.234 6.61101C101.93 3.40343 97.9087 3.25951 95.9443 5.13528C94.7254 6.29879 94.3183 7.78184 94.4817 9.42589C94.645 11.0699 95.4283 12.3822 96.9147 13.1408C98.9382 14.1824 101.345 13.6823 103.142 12.2725C103.291 12.1554 103.246 12.0749 103.142 11.9651C102.905 11.7041 102.652 11.4456 102.432 11.1651C102.404 11.1129 102.366 11.0677 102.32 11.0327C102.273 10.9977 102.22 10.9738 102.163 10.9628C102.107 10.9519 102.049 10.954 101.993 10.9692C101.938 10.9843 101.886 11.0121 101.842 11.0504C101.016 11.5245 100.082 11.7604 99.137 11.7334C97.7904 11.7066 96.8602 10.9772 96.607 9.79909C96.5407 9.48931 96.6283 9.41613 96.9147 9.42101C97.9442 9.42101 98.9737 9.42101 99.9914 9.42101C101.009 9.42101 102.027 9.42101 103.042 9.42101C103.314 9.42101 103.426 9.32588 103.466 9.06732C103.617 8.24247 103.536 7.39041 103.234 6.61101ZM101.153 7.76965C100.465 7.75501 99.7761 7.76965 99.0873 7.76965C98.3986 7.76965 97.7454 7.76965 97.0614 7.76965C96.7679 7.76965 96.6756 7.70867 96.7963 7.39889C96.998 6.93837 97.3254 6.54831 97.7385 6.2763C98.1516 6.00429 98.6326 5.86209 99.1228 5.86705C99.6079 5.85493 100.085 5.99584 100.49 6.27092C100.895 6.54599 101.209 6.9421 101.39 7.4062C101.49 7.68428 101.452 7.78428 101.153 7.76965Z" fill="#F9A11C"/>
<path d="M72.0397 7.05447C71.0054 3.50539 66.795 3.1517 64.7028 5.05674C63.5005 6.13976 63.0461 7.54475 63.136 9.14977C63.2496 11.0841 64.1253 12.5403 65.8862 13.2745C68.0162 14.1624 69.9877 13.6184 71.803 12.2793C71.945 12.1744 71.9379 12.0939 71.8243 11.9744C71.564 11.6963 71.2942 11.4231 71.0575 11.1255C71.035 11.0811 71.003 11.0425 70.964 11.0125C70.9251 10.9826 70.88 10.962 70.8323 10.9524C70.7846 10.9428 70.7354 10.9444 70.6883 10.9571C70.6413 10.9697 70.5976 10.9931 70.5605 11.0255C69.7027 11.5216 68.7295 11.7662 67.7464 11.7329C66.466 11.6963 65.5572 10.9841 65.2921 9.8547C65.2188 9.54004 65.2566 9.41076 65.6093 9.41808C66.627 9.43759 67.6423 9.41808 68.6576 9.41808C69.673 9.41808 70.641 9.39857 71.6326 9.41808C71.9876 9.41808 72.1438 9.29368 72.1651 8.95463C72.2353 8.31864 72.1928 7.6748 72.0397 7.05447ZM69.7866 7.78624C69.112 7.76184 68.4352 7.78624 67.7606 7.78624C67.0861 7.78624 66.3832 7.78624 65.6945 7.78624C65.4105 7.78624 65.3395 7.70818 65.4578 7.42279C65.6587 6.95286 65.9915 6.55564 66.4133 6.28222C66.835 6.0088 67.3265 5.87168 67.8245 5.88852C68.2967 5.88304 68.7598 6.02193 69.1553 6.28764C69.5509 6.55334 69.8612 6.93394 70.0469 7.38132C70.1463 7.65208 70.151 7.79355 69.7866 7.78136V7.78624Z" fill="#F9A11C"/>
<path d="M82.2115 6.8158C81.5867 5.16932 80.4294 4.2107 78.7159 3.98141C77.2154 3.78383 75.8758 4.1424 74.761 5.22786C73.6463 6.31331 73.3244 7.6305 73.3623 9.13063C73.3793 10.0686 73.6746 10.9786 74.2086 11.7383C74.7426 12.498 75.4897 13.0709 76.3491 13.3798C78.4271 14.0993 80.2945 13.5725 82.0293 12.2992C82.1902 12.1797 82.1713 12.0967 82.0482 11.9674C81.795 11.7016 81.5323 11.4381 81.3051 11.1479C81.2816 11.1005 81.2479 11.0594 81.2066 11.0275C81.1652 10.9956 81.1174 10.9739 81.0667 10.964C81.016 10.9542 80.9638 10.9564 80.914 10.9705C80.8643 10.9846 80.8183 11.0102 80.7797 11.0454C79.932 11.5334 78.9716 11.7746 78.0011 11.743C76.7041 11.7113 75.7858 10.9893 75.5255 9.84288C75.4569 9.53798 75.5042 9.42333 75.8332 9.42821C76.8485 9.44529 77.8662 9.42821 78.8815 9.42821C79.8969 9.42821 80.8909 9.4087 81.8944 9.42821C82.2352 9.42821 82.3677 9.30625 82.4009 8.98671C82.4529 8.25738 82.479 7.52561 82.2115 6.8158ZM80.027 7.79149C79.3525 7.76954 78.6756 7.79149 78.0011 7.79149C77.3266 7.79149 76.6237 7.79149 75.9349 7.79149C75.6367 7.79149 75.5918 7.69636 75.6983 7.4256C75.8987 6.9638 76.2257 6.57238 76.639 6.29939C77.0523 6.0264 77.5339 5.88373 78.0248 5.88889C78.5031 5.87968 78.9732 6.01774 79.375 6.2854C79.7768 6.55306 80.092 6.93817 80.2803 7.39145C80.401 7.66953 80.3749 7.79149 80.027 7.78173V7.79149Z" fill="#F9A11C"/>
<path d="M53.552 25.3172C54.0012 25.6075 54.5177 25.7684 55.0478 25.7831C55.8738 25.7831 56.2596 25.3562 56.2596 24.8244C56.2596 24.2927 55.9377 23.961 55.0998 23.6414C53.978 23.2292 53.4431 22.5925 53.4431 21.8218C53.4431 20.7851 54.2573 19.9338 55.5969 19.9338C56.1339 19.9277 56.6632 20.0655 57.1329 20.3338L56.8536 21.1851C56.469 20.9423 56.0266 20.8139 55.5756 20.8144C54.9058 20.8144 54.5318 21.2119 54.5318 21.69C54.5318 22.2218 54.9058 22.4608 55.7152 22.7804C56.7992 23.2072 57.353 23.7561 57.353 24.7318C57.353 25.8611 56.5033 26.6587 55.0194 26.6587C54.4079 26.6705 53.8038 26.5193 53.2656 26.2197L53.552 25.3172Z" fill="#F9A11C"/>
<path d="M59.4446 23.5095C59.4706 25.0901 60.4504 25.7414 61.5865 25.7414C62.1788 25.7602 62.7682 25.6471 63.3142 25.4097L63.5059 26.2463C62.8494 26.53 62.1419 26.6663 61.4303 26.6464C59.5085 26.6464 58.3535 25.3438 58.3535 23.4022C58.3535 21.4605 59.4706 19.9336 61.2977 19.9336C63.3355 19.9336 63.8775 21.7825 63.8775 22.9656C63.8752 23.1475 63.8625 23.3291 63.8396 23.5095H59.4446ZM62.7722 22.6728C62.7722 21.9411 62.474 20.7702 61.1983 20.7702C60.0505 20.7702 59.5416 21.8606 59.4564 22.6728H62.7722Z" fill="#F9A11C"/>
<path d="M69.7214 26.2725C69.1585 26.5326 68.5465 26.6601 67.9298 26.6457C66.0364 26.6457 64.8223 25.3285 64.8223 23.3625C64.8223 21.3965 66.1382 19.9476 68.1759 19.9476C68.7168 19.9403 69.2529 20.0535 69.7474 20.2793L69.4895 21.1843C69.0846 20.9672 68.632 20.8621 68.1759 20.8794C66.7441 20.8794 65.9701 21.9697 65.9701 23.3186C65.9701 24.8065 66.8979 25.7237 68.1357 25.7237C68.6175 25.7264 69.0938 25.618 69.5297 25.4066L69.7214 26.2725Z" fill="#F9A11C"/>
<path d="M76.273 24.7585C76.273 25.4244 76.2872 26.0074 76.325 26.5123H75.3192L75.2553 25.4635H75.2292C75.0188 25.8332 74.7168 26.1388 74.3542 26.3488C73.9916 26.5588 73.5813 26.6657 73.1655 26.6587C72.1856 26.6587 71.0117 26.1001 71.0117 23.8414V20.0801H72.1478V23.6414C72.1478 24.861 72.5075 25.6903 73.5394 25.6903C73.861 25.6828 74.1734 25.578 74.4377 25.3889C74.702 25.1998 74.9065 24.9348 75.0257 24.6268C75.0946 24.4347 75.1299 24.2315 75.1298 24.0268V20.0801H76.2635L76.273 24.7585Z" fill="#F9A11C"/>
<path d="M78.1552 22.0875C78.1552 21.3289 78.1433 20.6776 78.1055 20.08H79.0971L79.1374 21.3435H79.1871C79.4711 20.48 80.1551 19.9336 80.9172 19.9336C81.0258 19.9327 81.134 19.9466 81.239 19.9751V21.0776C81.1116 21.0484 80.9814 21.0345 80.8509 21.0362C80.0509 21.0362 79.4853 21.6631 79.3291 22.5387C79.2978 22.7191 79.2812 22.9019 79.2794 23.0851V26.5H78.1552V22.0875Z" fill="#F9A11C"/>
<path d="M82.8759 23.5095C82.902 25.0901 83.8818 25.7414 85.006 25.7414C85.5984 25.7605 86.1878 25.6474 86.7337 25.4097L86.9278 26.2463C86.2712 26.5297 85.5637 26.666 84.8521 26.6464C82.9304 26.6464 81.7754 25.3438 81.7754 23.4022C81.7754 21.4605 82.902 19.9336 84.7291 19.9336C86.7668 19.9336 87.3088 21.7825 87.3088 22.9656C87.3072 23.1476 87.2938 23.3293 87.2686 23.5095H82.8759ZM86.2012 22.6728C86.2154 21.9411 85.9053 20.7702 84.6297 20.7702C83.4818 20.7702 82.973 21.8606 82.8878 22.6728H86.2012Z" fill="#F9A11C"/>
<path d="M94.0951 17.0762V24.8427C94.0951 25.4159 94.107 26.0623 94.1472 26.5038H93.1271L93.0751 25.3891H93.0514C92.8472 25.7843 92.539 26.1122 92.1623 26.3352C91.7856 26.5583 91.3555 26.6674 90.9213 26.6501C89.4137 26.6501 88.254 25.3354 88.254 23.3816C88.2398 21.2424 89.5297 19.9252 91.0515 19.9252C91.9982 19.9252 92.6514 20.3911 92.9449 20.9009H92.9686V17.0762H94.0951ZM92.9591 22.6864C92.9609 22.5223 92.9443 22.3586 92.9094 22.1986C92.8282 21.8135 92.6212 21.4688 92.3232 21.222C92.0251 20.9752 91.654 20.8412 91.2716 20.8423C90.0882 20.8423 89.3995 21.9058 89.3995 23.3279C89.3995 24.6305 90.0196 25.7062 91.2456 25.7062C91.6347 25.7031 92.0111 25.5631 92.3124 25.3094C92.6138 25.0556 92.8219 24.7033 92.9023 24.3109C92.939 24.1454 92.9557 23.9758 92.952 23.806L92.9591 22.6864Z" fill="#F9A11C"/>
<path d="M98.6582 26.5111C98.6842 26.0745 98.7103 25.4232 98.7103 24.85V17.0762H99.8321V21.1155H99.8581C100.074 20.736 100.387 20.4248 100.762 20.2162C101.138 20.0075 101.562 19.9094 101.988 19.9325C103.536 19.9325 104.632 21.2619 104.62 23.2157C104.62 25.5159 103.214 26.6575 101.82 26.6575C101.395 26.6814 100.973 26.5792 100.603 26.363C100.233 26.1468 99.9309 25.8257 99.7327 25.4378H99.6925L99.6428 26.4989L98.6582 26.5111ZM99.8416 23.9328C99.8402 24.0744 99.8521 24.2157 99.8771 24.3548C99.9721 24.7458 100.191 25.0929 100.499 25.3408C100.808 25.5887 101.188 25.7233 101.579 25.7232C102.762 25.7232 103.472 24.7256 103.472 23.2499C103.472 21.9619 102.828 20.8594 101.617 20.8594C101.215 20.867 100.827 21.012 100.514 21.2717C100.2 21.5313 99.9799 21.8908 99.8865 22.2937C99.8496 22.4537 99.8282 22.6171 99.8226 22.7815L99.8416 23.9328Z" fill="#F9A11C"/>
<path d="M106.37 20.0801L107.736 23.8804C107.878 24.3073 108.032 24.8122 108.136 25.1976H108.16C108.276 24.8122 108.396 24.3195 108.56 23.856L109.797 20.0801H111L109.298 24.6658C108.484 26.8611 107.93 28.0027 107.156 28.693C106.763 29.0663 106.283 29.3278 105.762 29.4516L105.48 28.4759C105.843 28.3522 106.18 28.1585 106.472 27.9051C106.882 27.5528 107.206 27.1067 107.419 26.6026C107.465 26.5162 107.496 26.4221 107.511 26.3245C107.501 26.2184 107.475 26.1147 107.433 26.0172L105.123 20.0898L106.37 20.0801Z" fill="#F9A11C"/>
</svg>
