<svg width="30" height="46" viewBox="0 0 30 46" fill="none" xmlns="http://www.w3.org/2000/svg">
<g clip-path="url(#clip0)">
<path d="M3.9 34.9L0.5 38.3" stroke="#787878" stroke-miterlimit="10" stroke-linecap="round" stroke-linejoin="round"/>
<path d="M7.3 34.9L0.5 41.7" stroke="#787878" stroke-miterlimit="10" stroke-linecap="round" stroke-linejoin="round"/>
<path d="M10.7 34.9L0.5 45" stroke="#787878" stroke-miterlimit="10" stroke-linecap="round" stroke-linejoin="round"/>
<path d="M14.1 34.9L3.9 45" stroke="#787878" stroke-miterlimit="10" stroke-linecap="round" stroke-linejoin="round"/>
<path d="M17.4 34.9L7.3 45" stroke="#787878" stroke-miterlimit="10" stroke-linecap="round" stroke-linejoin="round"/>
<path d="M20.8 34.9L10.6 45" stroke="#787878" stroke-miterlimit="10" stroke-linecap="round" stroke-linejoin="round"/>
<path d="M24.2 34.9L14 45" stroke="#787878" stroke-miterlimit="10" stroke-linecap="round" stroke-linejoin="round"/>
<path d="M27.6 34.9L17.4 45" stroke="#787878" stroke-miterlimit="10" stroke-linecap="round" stroke-linejoin="round"/>
<path d="M29.2 36.6L20.8 45" stroke="#787878" stroke-miterlimit="10" stroke-linecap="round" stroke-linejoin="round"/>
<path d="M29.2 40L24.1 45" stroke="#787878" stroke-miterlimit="10" stroke-linecap="round" stroke-linejoin="round"/>
<path d="M29.2 43.3L27.5 45" stroke="#787878" stroke-miterlimit="10" stroke-linecap="round" stroke-linejoin="round"/>
<path d="M0.5 31.3H29.2" stroke="#787878" stroke-miterlimit="10" stroke-linecap="round" stroke-linejoin="round"/>
<path d="M0.5 34.9H29.2" stroke="#787878" stroke-miterlimit="10" stroke-linecap="round" stroke-linejoin="round"/>
<path d="M14.1 44.6C15.9225 44.6 17.4 43.1225 17.4 41.3C17.4 39.4775 15.9225 38 14.1 38C12.2775 38 10.8 39.4775 10.8 41.3C10.8 43.1225 12.2775 44.6 14.1 44.6Z" fill="white" stroke="#787878" stroke-miterlimit="10" stroke-linecap="round" stroke-linejoin="round"/>
<path d="M26 31.3H3.9C3 31.3 2.3 30.6 2.3 29.7V2.1C2.3 1.2 3 0.5 3.9 0.5H26C26.9 0.5 27.6 1.2 27.6 2.1V29.7C27.6 30.6 26.9 31.3 26 31.3Z" fill="white" stroke="#787878" stroke-width="0.8862" stroke-miterlimit="10"/>
<path d="M21.2 22.4H8.7C7.4 22.4 6.4 21.4 6.4 20.1V13.4C6.4 12.1 7.4 11.1 8.7 11.1H21.3C22.6 11.1 23.6 12.1 23.6 13.4V20.1C23.5 21.4 22.5 22.4 21.2 22.4Z" fill="white" stroke="#787878" stroke-width="0.8862" stroke-miterlimit="10"/>
<path d="M17.2 0.400002H12.7V11H17.2V0.400002Z" fill="white" stroke="#787878" stroke-width="0.8862" stroke-miterlimit="10"/>
<path d="M13.9 14.6H9V19.6H13.9V14.6Z" fill="white" stroke="#787878" stroke-width="0.8862" stroke-miterlimit="10"/>
<path d="M12.6 12.8H10.4V17.1H12.6V12.8Z" fill="white" stroke="#787878" stroke-width="0.8862" stroke-miterlimit="10"/>
<path d="M21 14.6H16.1V19.6H21V14.6Z" fill="white" stroke="#787878" stroke-width="0.8862" stroke-miterlimit="10"/>
<path d="M19.6 12.8H17.4V17.1H19.6V12.8Z" fill="white" stroke="#787878" stroke-width="0.8862" stroke-miterlimit="10"/>
<path d="M16.2 4H15.5V4.7H16.2V4Z" fill="#787878"/>
<path d="M16.2 5.4H15.5V6.1H16.2V5.4Z" fill="#787878"/>
<path d="M16.2 6.8H15.5V7.5H16.2V6.8Z" fill="#787878"/>
</g>
<defs>
<clipPath id="clip0">
<rect width="29.7" height="45.5" fill="white"/>
</clipPath>
</defs>
</svg>
