<svg width="28" height="46" viewBox="0 0 28 46" fill="none" xmlns="http://www.w3.org/2000/svg">
<g clip-path="url(#clip0)">
<path d="M24.7 45.1H2.4C1.3 45.1 0.400002 44.2 0.400002 43.1V2.40002C0.400002 1.30002 1.3 0.400024 2.4 0.400024H24.7C25.8 0.400024 26.7 1.30002 26.7 2.40002V43.1C26.7 44.2 25.8 45.1 24.7 45.1Z" fill="white" stroke="#787878" stroke-width="0.9184" stroke-miterlimit="10"/>
<path d="M20.1 23.2H7.1C5.8 23.2 4.7 22.1 4.7 20.8V13.8C4.7 12.5 5.8 11.4 7.1 11.4H20.1C21.4 11.4 22.5 12.5 22.5 13.8V20.8C22.5 22.1 21.4 23.2 20.1 23.2Z" fill="white" stroke="#787878" stroke-width="0.9184" stroke-miterlimit="10"/>
<path d="M15.9 0.5H11.2V11.5H15.9V0.5Z" fill="white" stroke="#787878" stroke-width="0.9184" stroke-miterlimit="10"/>
<path d="M12.5 15.2H7.5V20.3H12.5V15.2Z" fill="white" stroke="#787878" stroke-width="0.9184" stroke-miterlimit="10"/>
<path d="M11.1 13.3H8.8V17.8H11.1V13.3Z" fill="white" stroke="#787878" stroke-width="0.9184" stroke-miterlimit="10"/>
<path d="M19.8 15.2H14.8V20.3H19.8V15.2Z" fill="white" stroke="#787878" stroke-width="0.9184" stroke-miterlimit="10"/>
<path d="M18.5 13.3H16.2V17.8H18.5V13.3Z" fill="white" stroke="#787878" stroke-width="0.9184" stroke-miterlimit="10"/>
<path d="M14.9 4.09998H14.2V4.79998H14.9V4.09998Z" fill="#787878"/>
<path d="M14.9 5.59998H14.2V6.29998H14.9V5.59998Z" fill="#787878"/>
<path d="M14.9 7H14.2V7.7H14.9V7Z" fill="#787878"/>
<path d="M0.5 32.5H26.7" stroke="#787878" stroke-width="0.7873" stroke-miterlimit="10" stroke-linecap="round" stroke-linejoin="round"/>
<path d="M0.5 35.7H26.7" stroke="#787878" stroke-width="0.7873" stroke-miterlimit="10" stroke-linecap="round" stroke-linejoin="round"/>
</g>
<defs>
<clipPath id="clip0">
<rect width="27.1" height="45.5" fill="white"/>
</clipPath>
</defs>
</svg>
