<svg width="62" height="20" viewBox="0 0 62 20" fill="none" xmlns="http://www.w3.org/2000/svg">
<path d="M0 0.685262C0.820542 0.262805 1.75889 0.433413 2.64036 0.417164C4.65922 0.469971 6.68214 0.368419 8.701 0.457785C9.61091 0.453723 10.3908 1.20927 10.5168 2.09075C11.1504 5.16169 11.7313 8.24482 12.3528 11.3239C11.3251 7.71674 8.61163 4.77173 5.42289 2.8991C3.73712 1.88764 1.85638 1.29864 0 0.685262Z" fill="#F4A929"/>
<path d="M17.5635 0.425781C19.3142 0.446092 21.0609 0.437968 22.8076 0.425781C20.151 6.77483 17.6731 13.197 14.9597 19.5217C13.2536 19.4689 11.5475 19.4932 9.84143 19.4932C8.33033 13.9729 6.92079 8.42404 5.42188 2.8996C8.61062 4.77222 11.3241 7.71724 12.3518 11.3244C12.5062 12.0231 12.6158 12.738 12.7499 13.4448C14.3422 9.10241 15.9549 4.76409 17.5635 0.425781Z" fill="#1B4DA2"/>
<path d="M24.771 0.416016C26.4162 0.428202 28.0613 0.428202 29.7065 0.416016C28.695 6.77725 27.6307 13.1304 26.6436 19.4957C25.0066 19.4997 23.3696 19.4997 21.7285 19.4957C22.6709 13.1263 23.7799 6.78131 24.771 0.416016Z" fill="#1B4DA2"/>
<path d="M34.3872 1.61522C37.3363 -0.322398 41.1912 -0.265529 44.453 0.806863C44.3028 2.21641 44.0671 3.61377 43.8234 5.00707C42.0889 4.17434 40.066 3.80469 38.1812 4.28808C37.2916 4.4993 36.4142 5.60419 37.1535 6.43286C38.6727 7.98864 41.0653 8.34204 42.4951 10.0359C44.1525 11.6567 44.0915 14.3864 42.9623 16.2834C41.768 18.286 39.4689 19.3341 37.2306 19.6347C34.7 19.8987 32.0637 19.7403 29.6914 18.7613C29.9433 17.3396 30.1545 15.9097 30.4104 14.488C32.4618 15.5482 34.8421 16.0803 37.1291 15.5726C37.905 15.3126 38.7052 14.6748 38.6361 13.7649C38.3802 12.6804 37.2469 12.2173 36.3654 11.7258C34.6553 10.8849 32.8152 9.85314 32.0474 8.00489C31.0928 5.66919 32.3561 2.9354 34.3872 1.61522Z" fill="#1B4DA2"/>
<path fill-rule="evenodd" clip-rule="evenodd" d="M52.5705 0.486759C51.5428 0.539567 50.8928 1.49416 50.5638 2.37157C49.264 5.50008 47.9556 8.62494 46.6474 11.7495C45.564 14.3371 44.4807 16.9245 43.4023 19.5136C45.1247 19.5095 46.847 19.5095 48.5693 19.5095C48.9309 18.5549 49.2802 17.5922 49.6173 16.6295C51.3006 16.6393 52.9838 16.6386 54.6691 16.638C55.0906 16.6378 55.5121 16.6376 55.9339 16.6376C56.1289 17.6003 56.332 18.559 56.5473 19.5136C57.3068 19.5116 58.0663 19.5105 58.8257 19.5095C59.5855 19.5085 60.3452 19.5075 61.1049 19.5055C60.63 17.2409 60.1582 14.9758 59.6863 12.7106C58.8344 8.62086 57.9824 4.53063 57.1119 0.442077C56.5429 0.452784 55.9727 0.446788 55.4023 0.440788C54.4578 0.430856 53.5126 0.420915 52.5705 0.486759ZM52.042 10.0212C51.72 10.9193 51.3981 11.8173 51.0526 12.7055C52.4175 12.7096 53.7783 12.7096 55.1431 12.7096C55.013 12.0836 54.8755 11.4588 54.7379 10.8339C54.3559 9.09871 53.9738 7.36299 53.7498 5.60092C53.1089 7.0449 52.5754 8.53311 52.042 10.0212Z" fill="#1B4DA2"/>
</svg>
